<!DOCTYPE svg PUBLIC "-//W3C//DTD SVG 1.1//EN" "http://www.w3.org/Graphics/SVG/1.1/DTD/svg11.dtd" [
	<!ENTITY ns_flows "http://ns.adobe.com/Flows/1.0/">
]><svg xmlns="http://www.w3.org/2000/svg" width="13" height="13"><path fill="#A7B8C0" d="M10.563 1.625v.831c0 .898-.726 1.625-1.625 1.625-.897 0-1.625-.727-1.625-1.625v-.831h-1.625v.831c0 .898-.727 1.625-1.625 1.625-.897 0-1.625-.727-1.625-1.625v-.831h-2.438v11.375h13v-11.375h-2.437zm-6.5 9.75h-1.625v-1.625h1.625v1.625zm0-3.25h-1.625v-1.625h1.625v1.625zm3.25 3.25h-1.625v-1.625h1.625v1.625zm0-3.247h-1.625v-1.625h1.625v1.625zm1.625 3.247v-1.625h1.625l-1.625 1.625zm1.625-3.25h-1.625v-1.625h1.625v1.625zm-6.5-4.875c.448 0 .813-.363.813-.813v-1.624c-.001-.449-.365-.813-.813-.813-.45 0-.813.364-.813.813v1.625c0 .449.363.812.813.812zm4.875 0c.449 0 .813-.363.813-.813v-1.624c-.001-.449-.364-.813-.813-.813s-.813.364-.813.813v1.625c0 .449.363.812.813.812z"/></svg>