<!DOCTYPE svg PUBLIC "-//W3C//DTD SVG 1.1//EN" "http://www.w3.org/Graphics/SVG/1.1/DTD/svg11.dtd" [
	<!ENTITY ns_flows "http://ns.adobe.com/Flows/1.0/">
]><svg xmlns="http://www.w3.org/2000/svg" width="13" height="13"><path fill="#A7B8C0" d="M6.5 0c-3.589 0-6.5 2.91-6.5 6.5 0 3.589 2.911 6.5 6.5 6.5 3.59 0 6.5-2.911 6.5-6.5 0-3.59-2.91-6.5-6.5-6.5zm0 11.375c-2.688 0-4.875-2.188-4.875-4.875 0-2.688 2.188-4.875 4.875-4.875 2.689 0 4.875 2.187 4.875 4.875s-2.186 4.875-4.875 4.875zm.813-8.125h-1.634v3.247c0 .244.113.455.282.606l1.593 1.594 1.149-1.149-1.39-1.392v-2.906z"/></svg>