<?xml version="1.0" encoding="utf-8"?>
<!-- Generator: Adobe Illustrator 15.1.0, SVG Export Plug-In  -->
<!DOCTYPE svg PUBLIC "-//W3C//DTD SVG 1.1//EN" "http://www.w3.org/Graphics/SVG/1.1/DTD/svg11.dtd" [
	<!ENTITY ns_flows "http://ns.adobe.com/Flows/1.0/">
]>
<svg version="1.1"
	 xmlns="http://www.w3.org/2000/svg" xmlns:xlink="http://www.w3.org/1999/xlink" xmlns:a="http://ns.adobe.com/AdobeSVGViewerExtensions/3.0/"
	 x="0px" y="0px" width="197px" height="39px" viewBox="0 -0.001 197 39" enable-background="new 0 -0.001 197 39"
	 xml:space="preserve">
<defs>
</defs>
<path fill="#0071BC" d="M51.592,32.416l-1.089,2.935c-0.02,0.053-0.062,0.084-0.127,0.092c-0.084,0.01-0.182,0.017-0.29,0.021
	c-0.109,0.004-0.231,0.008-0.368,0.008c-0.076,0-0.113-0.023-0.113-0.072c0-0.015,0.003-0.025,0.007-0.034l3.239-7.767l-0.148-0.41
	c-0.01-0.038-0.015-0.063-0.015-0.078c0-0.07,0.045-0.113,0.134-0.127c0.075-0.015,0.164-0.027,0.266-0.04
	c0.102-0.012,0.199-0.022,0.293-0.031c0.094-0.009,0.182-0.017,0.262-0.021c0.08-0.005,0.139-0.007,0.176-0.007
	c0.094,0,0.163,0.054,0.205,0.163l3.154,8.119c0.014,0.038,0.021,0.064,0.021,0.078c0,0.08-0.047,0.127-0.142,0.141
	c-0.084,0.016-0.18,0.027-0.286,0.039s-0.21,0.021-0.311,0.029c-0.102,0.007-0.195,0.012-0.279,0.014
	c-0.085,0.004-0.146,0.004-0.184,0.004c-0.08,0-0.134-0.035-0.162-0.105l-1.153-2.999L51.592,32.416z M51.818,31.815h2.652
	l-1.344-3.508L51.818,31.815z"/>
<path fill="#0071BC" d="M68.624,35.125c0,0.052-0.026,0.09-0.077,0.113c-0.401,0.122-0.811,0.211-1.231,0.266
	c-0.419,0.054-0.844,0.081-1.272,0.081c-0.703,0-1.346-0.096-1.931-0.286c-0.584-0.19-1.087-0.469-1.506-0.834
	c-0.42-0.364-0.746-0.815-0.979-1.351s-0.351-1.146-0.351-1.836c0-0.706,0.124-1.329,0.372-1.866
	c0.248-0.538,0.589-0.987,1.025-1.347c0.436-0.361,0.952-0.634,1.546-0.817c0.593-0.185,1.24-0.276,1.938-0.276
	c0.401,0,0.778,0.023,1.131,0.071c0.354,0.047,0.7,0.108,1.04,0.184c0.052,0.009,0.089,0.029,0.11,0.06
	c0.021,0.031,0.034,0.063,0.039,0.096c0.005,0.065,0.011,0.15,0.018,0.255c0.007,0.104,0.013,0.215,0.018,0.336
	c0.004,0.119,0.011,0.242,0.018,0.366c0.007,0.125,0.013,0.24,0.018,0.347c0.004,0.106,0.008,0.196,0.011,0.271
	c0.002,0.076,0.003,0.124,0.003,0.143l-0.354,0.035c-0.038-0.297-0.131-0.547-0.279-0.75c-0.149-0.203-0.332-0.367-0.548-0.49
	c-0.217-0.125-0.457-0.215-0.722-0.27c-0.263-0.054-0.528-0.082-0.792-0.082c-0.519,0-0.975,0.082-1.369,0.244
	c-0.394,0.163-0.723,0.393-0.987,0.689c-0.264,0.297-0.462,0.653-0.594,1.068s-0.198,0.875-0.198,1.378
	c0,0.595,0.083,1.138,0.248,1.632c0.165,0.491,0.411,0.916,0.739,1.27s0.736,0.628,1.224,0.824c0.488,0.195,1.055,0.293,1.701,0.293
	c0.108,0,0.22-0.002,0.336-0.008c0.115-0.004,0.234-0.014,0.357-0.028v-2.22c0-0.138-0.009-0.248-0.028-0.334
	c-0.019-0.084-0.05-0.148-0.096-0.193c-0.044-0.045-0.102-0.076-0.172-0.092c-0.071-0.017-0.158-0.025-0.262-0.025
	c-0.033,0-0.067,0.001-0.103,0.004c-0.035,0.002-0.071,0.003-0.109,0.003l-0.035-0.396c0.254-0.02,0.489-0.033,0.704-0.045
	c0.215-0.012,0.403-0.022,0.566-0.029s0.297-0.012,0.403-0.014s0.176-0.004,0.208-0.004c0.151,0,0.227,0.076,0.227,0.227
	L68.624,35.125L68.624,35.125L68.624,35.125z"/>
<path fill="#0071BC" d="M69.562,26.249c0.518-0.141,0.945-0.241,1.28-0.3c0.334-0.059,0.535-0.089,0.601-0.089
	c0.151,0,0.226,0.084,0.226,0.254v9.074c0,0.112-0.057,0.179-0.169,0.197c-0.081,0.016-0.166,0.027-0.258,0.039
	c-0.092,0.012-0.181,0.021-0.265,0.029c-0.085,0.007-0.163,0.012-0.234,0.014c-0.07,0.004-0.125,0.004-0.162,0.004
	c-0.113,0-0.169-0.06-0.169-0.176v-8.077c0-0.249-0.04-0.42-0.12-0.513c-0.081-0.092-0.212-0.138-0.396-0.138
	c-0.09,0-0.186,0.007-0.29,0.021L69.562,26.249z"/>
<path fill="#0071BC" d="M75.507,35.521c-0.391,0-0.746-0.069-1.064-0.209c-0.319-0.139-0.593-0.328-0.824-0.568
	s-0.409-0.525-0.534-0.854c-0.125-0.326-0.187-0.68-0.187-1.057c0-0.415,0.072-0.794,0.215-1.139
	c0.144-0.344,0.343-0.637,0.598-0.881c0.255-0.242,0.559-0.431,0.913-0.564c0.354-0.135,0.742-0.202,1.167-0.202
	c0.391,0,0.748,0.067,1.072,0.202c0.323,0.134,0.598,0.318,0.827,0.555s0.407,0.514,0.535,0.834c0.127,0.321,0.19,0.668,0.19,1.039
	c0,0.426-0.07,0.813-0.211,1.165c-0.141,0.351-0.341,0.65-0.598,0.897c-0.257,0.248-0.563,0.439-0.919,0.576
	C76.328,35.453,75.937,35.521,75.507,35.521z M75.839,34.899c0.254,0,0.464-0.057,0.629-0.166c0.165-0.111,0.295-0.254,0.389-0.43
	c0.094-0.175,0.159-0.371,0.194-0.587c0.035-0.217,0.053-0.429,0.053-0.636c0-0.254-0.027-0.523-0.082-0.807
	c-0.055-0.282-0.146-0.543-0.272-0.781c-0.128-0.238-0.294-0.436-0.502-0.592c-0.207-0.154-0.464-0.233-0.771-0.233
	c-0.254,0-0.464,0.056-0.629,0.167c-0.165,0.109-0.295,0.254-0.389,0.432c-0.094,0.176-0.161,0.373-0.198,0.586
	c-0.038,0.215-0.057,0.428-0.057,0.641c0,0.259,0.029,0.529,0.085,0.813c0.057,0.283,0.148,0.543,0.276,0.778
	s0.294,0.431,0.501,0.583C75.276,34.822,75.533,34.899,75.839,34.899z"/>
<path fill="#0071BC" d="M81.007,30.592c0.236-0.071,0.471-0.139,0.707-0.204c0.235-0.066,0.459-0.125,0.672-0.175
	c0.212-0.048,0.404-0.089,0.577-0.12c0.172-0.029,0.314-0.046,0.428-0.046c0.273,0,0.521,0.077,0.743,0.229
	c0.221,0.152,0.41,0.351,0.565,0.59c0.156,0.24,0.276,0.508,0.36,0.803c0.085,0.294,0.127,0.581,0.127,0.859
	c0,0.505-0.091,0.943-0.272,1.316c-0.182,0.371-0.426,0.682-0.732,0.932c-0.306,0.25-0.661,0.438-1.064,0.56
	c-0.402,0.122-0.826,0.185-1.269,0.185c-0.217,0-0.435-0.014-0.655-0.039c-0.219-0.026-0.424-0.063-0.615-0.109
	c-0.19-0.047-0.359-0.102-0.505-0.162c-0.146-0.063-0.254-0.128-0.326-0.199v-7.794c0-0.25-0.04-0.42-0.12-0.513
	c-0.081-0.092-0.212-0.138-0.396-0.138c-0.09,0-0.187,0.007-0.29,0.021L78.9,26.249c0.518-0.141,0.945-0.241,1.279-0.301
	c0.335-0.059,0.536-0.088,0.602-0.088c0.15,0,0.226,0.084,0.226,0.254V30.592L81.007,30.592L81.007,30.592z M81.007,34.093
	c0,0.155,0.039,0.286,0.117,0.393c0.078,0.105,0.175,0.19,0.293,0.255c0.118,0.063,0.248,0.11,0.389,0.138
	c0.142,0.028,0.278,0.042,0.41,0.042c1.146,0,1.719-0.589,1.719-1.769c0-0.269-0.032-0.541-0.095-0.819
	c-0.065-0.278-0.159-0.531-0.284-0.757c-0.125-0.227-0.278-0.41-0.459-0.553c-0.181-0.142-0.39-0.211-0.625-0.211
	c-0.089,0-0.267,0.023-0.531,0.073s-0.575,0.128-0.933,0.236L81.007,34.093L81.007,34.093z"/>
<path fill="#0071BC" d="M86.252,30.634c0.245-0.099,0.486-0.186,0.725-0.261c0.238-0.076,0.462-0.138,0.672-0.188
	c0.21-0.049,0.401-0.086,0.573-0.112c0.171-0.025,0.314-0.039,0.428-0.039c0.339,0,0.625,0.039,0.855,0.116
	c0.231,0.078,0.417,0.203,0.559,0.373c0.141,0.17,0.243,0.386,0.304,0.646c0.061,0.262,0.09,0.576,0.085,0.943l-0.035,2.306
	c-0.004,0.146,0.005,0.283,0.028,0.41c0.024,0.128,0.049,0.253,0.078,0.375c0.005,0.005,0.007,0.022,0.007,0.056
	c0,0.071-0.047,0.113-0.141,0.127c-0.062,0.016-0.131,0.027-0.208,0.039c-0.077,0.012-0.157,0.021-0.237,0.029
	c-0.08,0.007-0.16,0.012-0.24,0.014c-0.081,0.004-0.151,0.004-0.212,0.004c-0.051,0-0.09-0.014-0.117-0.043
	c-0.025-0.027-0.045-0.07-0.06-0.127l-0.092-0.34c-0.179,0.08-0.363,0.155-0.551,0.223c-0.189,0.068-0.369,0.127-0.541,0.176
	c-0.172,0.051-0.329,0.09-0.471,0.117c-0.141,0.028-0.257,0.043-0.346,0.043c-0.25,0-0.467-0.047-0.65-0.139
	c-0.184-0.092-0.335-0.208-0.453-0.346c-0.118-0.139-0.205-0.292-0.261-0.459c-0.057-0.168-0.085-0.327-0.085-0.479
	c0-0.268,0.048-0.496,0.145-0.682c0.097-0.186,0.227-0.34,0.392-0.463c0.146-0.107,0.318-0.198,0.513-0.27
	c0.196-0.07,0.411-0.125,0.647-0.166c0.236-0.039,0.491-0.069,0.764-0.088c0.274-0.019,0.562-0.033,0.864-0.041l0.006-0.242
	c0.005-0.217-0.008-0.412-0.039-0.582c-0.031-0.174-0.086-0.318-0.167-0.437c-0.081-0.118-0.188-0.207-0.325-0.269
	c-0.137-0.062-0.308-0.092-0.516-0.092c-0.255,0-0.52,0.027-0.796,0.084c-0.275,0.057-0.59,0.142-0.944,0.254L86.252,30.634z
	 M89.18,32.869c-0.222,0.014-0.429,0.026-0.623,0.039c-0.193,0.012-0.37,0.03-0.531,0.053c-0.16,0.024-0.302,0.06-0.423,0.11
	c-0.123,0.05-0.222,0.119-0.297,0.207c-0.058,0.066-0.104,0.148-0.142,0.248c-0.038,0.101-0.056,0.209-0.056,0.326
	c0,0.1,0.015,0.201,0.046,0.305c0.031,0.104,0.085,0.199,0.163,0.287c0.078,0.087,0.183,0.158,0.314,0.216
	c0.132,0.057,0.3,0.085,0.502,0.085c0.028,0,0.074-0.005,0.138-0.014c0.063-0.01,0.142-0.025,0.233-0.047
	c0.091-0.022,0.194-0.051,0.307-0.088c0.114-0.037,0.229-0.084,0.347-0.143L89.18,32.869z"/>
<path fill="#0071BC" d="M91.256,26.249c0.519-0.141,0.945-0.241,1.28-0.3c0.335-0.059,0.535-0.089,0.601-0.089
	c0.151,0,0.226,0.084,0.226,0.254v9.074c0,0.112-0.057,0.179-0.169,0.197c-0.08,0.016-0.167,0.027-0.258,0.039
	c-0.092,0.012-0.181,0.021-0.265,0.029c-0.085,0.007-0.162,0.012-0.233,0.014c-0.07,0.004-0.125,0.004-0.163,0.004
	c-0.113,0-0.17-0.06-0.17-0.176v-8.077c0-0.249-0.04-0.42-0.12-0.513s-0.212-0.138-0.396-0.138c-0.09,0-0.187,0.007-0.29,0.021
	L91.256,26.249z"/>
<path fill="#0071BC" d="M100.24,31.138c0.363-0.023,0.684-0.076,0.962-0.156c0.276-0.08,0.509-0.197,0.696-0.351
	c0.186-0.153,0.328-0.347,0.424-0.583c0.097-0.234,0.145-0.521,0.145-0.855c0-0.277-0.051-0.521-0.154-0.729
	c-0.104-0.207-0.248-0.378-0.433-0.513c-0.185-0.134-0.401-0.234-0.649-0.302c-0.25-0.064-0.52-0.098-0.807-0.098
	c-0.189,0-0.331,0.016-0.424,0.045c-0.096,0.031-0.143,0.117-0.143,0.26v7.332c0,0.113-0.057,0.181-0.168,0.199
	c-0.08,0.014-0.168,0.026-0.266,0.038c-0.097,0.013-0.191,0.021-0.283,0.028c-0.093,0.007-0.177,0.012-0.254,0.014
	c-0.078,0.002-0.136,0.004-0.173,0.004c-0.113,0-0.169-0.06-0.169-0.177V28.2c0-0.235-0.052-0.393-0.156-0.471
	c-0.104-0.076-0.238-0.116-0.403-0.116c-0.094,0-0.198,0.007-0.311,0.021l-0.042-0.389c0.472-0.08,0.961-0.147,1.468-0.202
	c0.508-0.054,1.024-0.081,1.553-0.081c0.227,0,0.465,0.009,0.715,0.028c0.25,0.02,0.494,0.054,0.736,0.106
	c0.24,0.052,0.469,0.124,0.686,0.216s0.406,0.212,0.568,0.361c0.164,0.149,0.293,0.328,0.39,0.538
	c0.096,0.21,0.146,0.458,0.146,0.746c0,0.308-0.047,0.577-0.139,0.812c-0.092,0.232-0.219,0.439-0.382,0.617
	c-0.163,0.18-0.353,0.334-0.569,0.461s-0.451,0.235-0.699,0.324v0.042c0.117,0.024,0.244,0.062,0.381,0.11
	c0.138,0.049,0.271,0.119,0.4,0.212c0.129,0.092,0.25,0.208,0.36,0.351c0.11,0.141,0.198,0.314,0.265,0.522l0.523,1.618
	c0.07,0.222,0.135,0.398,0.193,0.531c0.06,0.131,0.123,0.231,0.188,0.301c0.065,0.067,0.142,0.113,0.226,0.134
	c0.084,0.022,0.191,0.032,0.318,0.032l0.021,0.367c-0.09,0.02-0.188,0.037-0.293,0.053c-0.106,0.017-0.211,0.031-0.315,0.039
	c-0.104,0.009-0.197,0.019-0.279,0.024c-0.083,0.007-0.145,0.011-0.188,0.011c-0.15,0-0.284-0.018-0.402-0.053
	s-0.225-0.097-0.318-0.184c-0.094-0.088-0.178-0.203-0.25-0.348c-0.074-0.144-0.142-0.324-0.203-0.541l-0.502-1.726
	c-0.069-0.245-0.154-0.44-0.254-0.587c-0.099-0.146-0.222-0.258-0.371-0.336c-0.148-0.078-0.328-0.129-0.537-0.155
	s-0.463-0.043-0.76-0.053L100.24,31.138z"/>
<path fill="#0071BC" d="M110.118,34.778c-0.226,0.109-0.466,0.209-0.714,0.301c-0.25,0.092-0.494,0.171-0.732,0.238
	c-0.238,0.064-0.459,0.115-0.664,0.15c-0.205,0.036-0.376,0.053-0.514,0.053c-0.383,0-0.721-0.071-1.014-0.215
	c-0.295-0.145-0.543-0.334-0.744-0.572c-0.199-0.238-0.352-0.514-0.455-0.825c-0.104-0.312-0.155-0.634-0.155-0.97
	c0-0.434,0.08-0.828,0.241-1.185c0.16-0.354,0.378-0.659,0.652-0.912c0.276-0.253,0.599-0.448,0.965-0.587
	c0.369-0.14,0.758-0.209,1.168-0.209c0.269,0,0.506,0.041,0.714,0.124s0.382,0.196,0.522,0.34c0.143,0.144,0.25,0.317,0.326,0.521
	c0.075,0.203,0.113,0.424,0.113,0.664c0,0.209-0.04,0.468-0.12,0.779l-3.324,0.176c0.019,0.298,0.078,0.568,0.177,0.813
	c0.1,0.246,0.239,0.458,0.422,0.636c0.181,0.18,0.402,0.318,0.664,0.418s0.563,0.147,0.902,0.147c0.227,0,0.467-0.026,0.725-0.081
	s0.487-0.122,0.689-0.202L110.118,34.778z M108.548,32.063c0.015-0.066,0.022-0.129,0.028-0.191
	c0.005-0.061,0.007-0.124,0.007-0.189c0-0.133-0.021-0.258-0.06-0.375c-0.039-0.119-0.099-0.221-0.174-0.308
	c-0.076-0.087-0.17-0.155-0.283-0.206c-0.112-0.049-0.239-0.074-0.381-0.074c-0.227,0-0.42,0.043-0.584,0.125
	c-0.162,0.081-0.297,0.19-0.402,0.328c-0.106,0.137-0.186,0.297-0.237,0.479s-0.08,0.371-0.085,0.568L108.548,32.063z"/>
<path fill="#0071BC" d="M110.285,26.249c0.52-0.141,0.945-0.241,1.279-0.3c0.336-0.059,0.535-0.089,0.602-0.089
	c0.15,0,0.227,0.084,0.227,0.254v9.074c0,0.112-0.057,0.179-0.17,0.197c-0.08,0.016-0.166,0.027-0.258,0.039
	s-0.181,0.021-0.266,0.029c-0.084,0.007-0.162,0.012-0.233,0.014c-0.071,0.004-0.125,0.004-0.163,0.004
	c-0.113,0-0.169-0.06-0.169-0.176v-8.077c0-0.249-0.04-0.42-0.12-0.513c-0.08-0.092-0.212-0.138-0.396-0.138
	c-0.089,0-0.187,0.007-0.29,0.021L110.285,26.249z"/>
<path fill="#0071BC" d="M113.917,30.634c0.246-0.099,0.487-0.186,0.726-0.261c0.237-0.075,0.461-0.138,0.672-0.188
	c0.209-0.049,0.4-0.086,0.572-0.112c0.172-0.025,0.315-0.039,0.43-0.039c0.338,0,0.625,0.039,0.854,0.116
	c0.231,0.078,0.417,0.203,0.56,0.373c0.141,0.17,0.242,0.386,0.304,0.646c0.062,0.262,0.089,0.576,0.084,0.943l-0.035,2.306
	c-0.005,0.146,0.004,0.283,0.028,0.41c0.022,0.128,0.05,0.253,0.078,0.375c0.004,0.005,0.006,0.022,0.006,0.056
	c0,0.071-0.047,0.113-0.141,0.127c-0.062,0.016-0.132,0.027-0.209,0.039c-0.076,0.012-0.156,0.021-0.236,0.029
	c-0.08,0.007-0.159,0.012-0.24,0.014c-0.08,0.004-0.151,0.004-0.212,0.004c-0.052,0-0.091-0.014-0.117-0.043
	c-0.026-0.027-0.046-0.07-0.06-0.127l-0.092-0.34c-0.18,0.08-0.363,0.155-0.553,0.223c-0.189,0.068-0.369,0.127-0.541,0.176
	c-0.172,0.051-0.329,0.09-0.47,0.117c-0.142,0.028-0.257,0.043-0.347,0.043c-0.25,0-0.467-0.047-0.651-0.139
	s-0.335-0.208-0.452-0.346c-0.118-0.139-0.205-0.292-0.262-0.459c-0.057-0.168-0.084-0.327-0.084-0.479
	c0-0.268,0.048-0.496,0.145-0.682c0.096-0.186,0.227-0.34,0.393-0.463c0.146-0.107,0.316-0.198,0.513-0.27
	c0.196-0.07,0.412-0.125,0.647-0.166c0.234-0.039,0.489-0.069,0.764-0.088c0.273-0.019,0.562-0.033,0.863-0.041l0.006-0.242
	c0.004-0.217-0.008-0.412-0.039-0.582c-0.03-0.174-0.086-0.318-0.166-0.437c-0.079-0.118-0.188-0.207-0.324-0.269
	c-0.137-0.062-0.309-0.092-0.518-0.092c-0.254,0-0.52,0.027-0.795,0.084s-0.59,0.142-0.943,0.254L113.917,30.634z M116.846,32.869
	c-0.222,0.014-0.429,0.026-0.621,0.039c-0.193,0.012-0.371,0.03-0.531,0.053c-0.16,0.024-0.303,0.06-0.424,0.11
	c-0.123,0.05-0.223,0.119-0.297,0.207c-0.058,0.066-0.104,0.148-0.142,0.248c-0.037,0.101-0.058,0.209-0.058,0.326
	c0,0.1,0.016,0.201,0.047,0.305s0.084,0.199,0.162,0.287c0.078,0.087,0.184,0.158,0.315,0.216c0.132,0.057,0.3,0.085,0.501,0.085
	c0.028,0,0.075-0.005,0.139-0.014c0.063-0.01,0.141-0.025,0.232-0.047c0.092-0.022,0.195-0.051,0.309-0.088
	c0.111-0.037,0.228-0.084,0.346-0.143L116.846,32.869z"/>
<path fill="#0071BC" d="M118.922,30.379c0.123-0.009,0.258-0.019,0.403-0.028c0.146-0.009,0.29-0.019,0.432-0.027v-1.09
	c0-0.099,0.009-0.17,0.028-0.215s0.061-0.08,0.127-0.104c0.09-0.033,0.184-0.064,0.279-0.1c0.097-0.032,0.188-0.062,0.274-0.088
	s0.165-0.047,0.234-0.064s0.122-0.023,0.159-0.023c0.104,0,0.156,0.059,0.156,0.176v1.442c0.315-0.014,0.605-0.024,0.873-0.032
	c0.266-0.006,0.473-0.011,0.618-0.011c0.038,0,0.072,0.013,0.103,0.036c0.031,0.023,0.047,0.063,0.047,0.113v0.014l-0.029,0.438
	l-1.611,0.008v3.006c0,0.316,0.084,0.546,0.254,0.689c0.168,0.144,0.391,0.215,0.664,0.215c0.127,0,0.271-0.017,0.428-0.047
	c0.158-0.03,0.344-0.086,0.556-0.166l0.147,0.432c-0.178,0.08-0.361,0.154-0.547,0.222c-0.187,0.069-0.365,0.128-0.535,0.181
	c-0.168,0.053-0.323,0.093-0.463,0.121c-0.139,0.028-0.246,0.041-0.321,0.041c-0.212,0-0.407-0.033-0.584-0.099
	s-0.329-0.165-0.456-0.297s-0.227-0.293-0.297-0.485c-0.07-0.189-0.106-0.41-0.106-0.66v-3.146l-0.813,0.021L118.922,30.379z"/>
<path fill="#0071BC" d="M123.234,30.478c0.254-0.07,0.49-0.131,0.707-0.18c0.218-0.049,0.41-0.091,0.576-0.124
	c0.168-0.032,0.305-0.057,0.41-0.071c0.106-0.014,0.176-0.021,0.209-0.021c0.15,0,0.227,0.084,0.227,0.254v4.853
	c0,0.112-0.057,0.18-0.17,0.197c-0.08,0.014-0.166,0.027-0.258,0.039s-0.18,0.021-0.265,0.029c-0.084,0.007-0.163,0.012-0.233,0.013
	c-0.069,0.003-0.125,0.005-0.162,0.005c-0.112,0-0.17-0.061-0.17-0.178V31.44c0-0.25-0.039-0.42-0.119-0.514
	c-0.08-0.093-0.207-0.138-0.375-0.138c-0.051,0-0.104,0-0.151,0.003c-0.049,0.002-0.108,0.012-0.181,0.023L123.234,30.478z
	 M125.406,27.884c0,0.254-0.068,0.438-0.202,0.551c-0.136,0.113-0.329,0.17-0.583,0.17c-0.213,0-0.375-0.063-0.488-0.19
	s-0.17-0.304-0.17-0.53c0-0.255,0.07-0.438,0.208-0.548s0.336-0.166,0.591-0.166c0.211,0,0.372,0.063,0.481,0.187
	C125.352,27.481,125.406,27.657,125.406,27.884z"/>
<path fill="#0071BC" d="M129.2,35.521c-0.392,0-0.745-0.069-1.063-0.209c-0.318-0.139-0.595-0.328-0.824-0.568
	c-0.232-0.24-0.41-0.525-0.535-0.854c-0.125-0.326-0.188-0.68-0.188-1.057c0-0.415,0.072-0.794,0.217-1.139
	c0.144-0.344,0.342-0.637,0.598-0.881c0.254-0.242,0.559-0.431,0.912-0.564c0.354-0.135,0.742-0.202,1.168-0.202
	c0.391,0,0.748,0.067,1.07,0.202c0.323,0.134,0.6,0.318,0.828,0.555c0.229,0.235,0.407,0.514,0.534,0.834
	c0.127,0.321,0.19,0.668,0.19,1.039c0,0.426-0.07,0.813-0.211,1.165c-0.143,0.351-0.342,0.65-0.599,0.897
	c-0.257,0.248-0.563,0.439-0.919,0.576C130.021,35.453,129.629,35.521,129.2,35.521z M129.532,34.899
	c0.255,0,0.465-0.057,0.629-0.166c0.165-0.111,0.295-0.254,0.389-0.43c0.095-0.175,0.159-0.371,0.195-0.587
	c0.034-0.217,0.053-0.429,0.053-0.636c0-0.254-0.028-0.523-0.082-0.807c-0.054-0.282-0.146-0.543-0.272-0.781
	s-0.295-0.436-0.502-0.592c-0.207-0.154-0.463-0.233-0.771-0.233c-0.255,0-0.465,0.056-0.63,0.167
	c-0.165,0.109-0.294,0.254-0.389,0.432c-0.094,0.176-0.16,0.373-0.197,0.586c-0.037,0.215-0.057,0.428-0.057,0.641
	c0,0.259,0.027,0.529,0.084,0.813s0.148,0.543,0.276,0.778s0.296,0.431,0.503,0.583C128.971,34.822,129.227,34.899,129.532,34.899z"
	/>
<path fill="#0071BC" d="M132.677,30.478c0.255-0.07,0.489-0.131,0.704-0.18s0.403-0.091,0.564-0.124
	c0.164-0.032,0.296-0.057,0.4-0.071c0.104-0.014,0.172-0.021,0.205-0.021c0.143,0,0.219,0.084,0.233,0.254l0.022,0.297
	c0.215-0.079,0.435-0.155,0.653-0.226c0.22-0.071,0.429-0.135,0.626-0.188c0.197-0.055,0.379-0.098,0.544-0.128
	s0.304-0.046,0.417-0.046c0.27,0,0.5,0.042,0.689,0.127c0.191,0.084,0.348,0.203,0.471,0.354s0.212,0.334,0.27,0.549
	c0.057,0.214,0.084,0.451,0.084,0.711l-0.035,3.4c0,0.113-0.057,0.18-0.17,0.199c-0.075,0.014-0.158,0.026-0.25,0.038
	c-0.092,0.013-0.183,0.021-0.271,0.029c-0.087,0.007-0.167,0.012-0.239,0.014c-0.074,0.003-0.127,0.005-0.16,0.005
	c-0.112,0-0.17-0.061-0.17-0.177l0.035-2.815v-0.106c0-0.254-0.02-0.478-0.06-0.668s-0.107-0.353-0.202-0.483
	c-0.096-0.132-0.217-0.231-0.367-0.298c-0.15-0.065-0.34-0.099-0.566-0.099c-0.084,0-0.244,0.023-0.477,0.07
	c-0.234,0.047-0.508,0.14-0.824,0.276v4.017c0,0.113-0.057,0.18-0.17,0.199c-0.076,0.014-0.158,0.026-0.25,0.038
	c-0.092,0.013-0.182,0.021-0.269,0.029c-0.087,0.007-0.167,0.012-0.24,0.015c-0.073,0.002-0.126,0.004-0.16,0.004
	c-0.112,0-0.17-0.061-0.17-0.177v-3.854c0-0.25-0.04-0.42-0.12-0.512c-0.08-0.093-0.207-0.138-0.382-0.138
	c-0.047,0-0.095,0-0.146,0.003c-0.049,0.003-0.109,0.012-0.181,0.025L132.677,30.478z"/>
<path fill="#0071BC" d="M143.186,31.767c-0.053-0.175-0.104-0.334-0.156-0.475c-0.053-0.141-0.119-0.262-0.201-0.363
	c-0.083-0.103-0.188-0.18-0.314-0.234c-0.128-0.053-0.289-0.081-0.488-0.081c-0.123,0-0.244,0.012-0.367,0.034
	c-0.123,0.024-0.233,0.063-0.333,0.113c-0.099,0.053-0.179,0.12-0.24,0.205s-0.092,0.191-0.092,0.318s0.034,0.238,0.106,0.333
	c0.07,0.094,0.164,0.178,0.282,0.251c0.118,0.072,0.255,0.14,0.41,0.201s0.315,0.123,0.481,0.185c0.197,0.07,0.394,0.151,0.586,0.24
	c0.193,0.089,0.367,0.194,0.521,0.317s0.278,0.269,0.375,0.437c0.097,0.167,0.146,0.366,0.146,0.599
	c0,0.297-0.076,0.551-0.229,0.764c-0.153,0.212-0.351,0.386-0.591,0.52c-0.24,0.135-0.505,0.233-0.795,0.297
	c-0.29,0.064-0.572,0.096-0.846,0.096c-0.166,0-0.352-0.019-0.559-0.053c-0.208-0.035-0.402-0.094-0.583-0.174
	c-0.181-0.081-0.333-0.186-0.456-0.318c-0.121-0.131-0.183-0.295-0.183-0.487c0-0.231,0.077-0.398,0.233-0.502
	c0.155-0.104,0.354-0.155,0.594-0.155c0.052,0,0.097,0,0.134,0.003c0.038,0.003,0.083,0.009,0.134,0.019v0.119
	c0,0.313,0.075,0.551,0.223,0.719c0.148,0.166,0.396,0.25,0.74,0.25c0.127,0,0.248-0.014,0.363-0.041
	c0.116-0.029,0.218-0.071,0.305-0.127c0.086-0.058,0.157-0.129,0.211-0.217c0.055-0.086,0.082-0.189,0.082-0.308
	c0-0.146-0.037-0.271-0.109-0.371c-0.074-0.103-0.17-0.19-0.291-0.269c-0.119-0.078-0.258-0.147-0.413-0.209
	c-0.156-0.061-0.316-0.125-0.481-0.19c-0.193-0.069-0.386-0.147-0.58-0.231c-0.193-0.086-0.365-0.188-0.52-0.31
	c-0.153-0.12-0.278-0.265-0.375-0.435c-0.098-0.17-0.145-0.375-0.145-0.615c0-0.292,0.075-0.539,0.229-0.739
	c0.153-0.2,0.346-0.362,0.58-0.487c0.233-0.125,0.487-0.215,0.76-0.27c0.274-0.055,0.53-0.082,0.771-0.082
	c0.231,0,0.455,0.014,0.672,0.042c0.218,0.028,0.432,0.075,0.645,0.142c0.037,0.01,0.057,0.028,0.057,0.058
	c0.01,0.08,0.018,0.19,0.023,0.329c0.008,0.139,0.014,0.281,0.02,0.428c0.004,0.146,0.008,0.284,0.011,0.414
	c0.002,0.13,0.003,0.227,0.003,0.287L143.186,31.767z"/>
<path fill="#0071BC" d="M155.415,34.851c-0.245,0.137-0.515,0.252-0.806,0.346c-0.293,0.095-0.58,0.17-0.859,0.227
	s-0.542,0.098-0.785,0.124c-0.242,0.025-0.439,0.038-0.59,0.038c-0.65,0-1.245-0.109-1.782-0.329
	c-0.538-0.219-0.999-0.522-1.383-0.909c-0.385-0.387-0.683-0.846-0.896-1.379c-0.211-0.533-0.317-1.115-0.317-1.746
	c0-0.685,0.12-1.291,0.36-1.818s0.572-0.973,0.996-1.334c0.424-0.359,0.926-0.632,1.506-0.819c0.58-0.186,1.209-0.279,1.89-0.279
	c0.381,0,0.747,0.025,1.097,0.074c0.348,0.049,0.688,0.11,1.018,0.181c0.043,0.009,0.078,0.029,0.104,0.06
	c0.026,0.031,0.041,0.063,0.045,0.096c0.006,0.065,0.012,0.15,0.02,0.254c0.007,0.104,0.013,0.217,0.018,0.336
	c0.004,0.12,0.01,0.243,0.018,0.367c0.007,0.125,0.014,0.24,0.019,0.348c0.005,0.105,0.008,0.196,0.011,0.271
	c0.002,0.076,0.004,0.123,0.004,0.143l-0.354,0.035c-0.029-0.291-0.114-0.539-0.259-0.742s-0.321-0.367-0.534-0.492
	c-0.212-0.125-0.446-0.215-0.703-0.272c-0.257-0.056-0.513-0.085-0.767-0.085c-0.516,0-0.961,0.085-1.342,0.254
	c-0.379,0.17-0.695,0.405-0.947,0.704c-0.252,0.3-0.44,0.653-0.564,1.062c-0.125,0.408-0.188,0.852-0.188,1.332
	c0,0.563,0.076,1.084,0.229,1.566s0.384,0.902,0.688,1.255c0.307,0.354,0.688,0.632,1.146,0.835s0.993,0.305,1.605,0.305
	c0.367,0,0.724-0.041,1.067-0.121c0.345-0.08,0.692-0.188,1.046-0.325L155.415,34.851z"/>
<path fill="#0071BC" d="M158.509,35.521c-0.391,0-0.745-0.069-1.063-0.209c-0.318-0.139-0.594-0.328-0.824-0.568
	s-0.409-0.525-0.534-0.854c-0.125-0.326-0.188-0.68-0.188-1.057c0-0.415,0.072-0.794,0.217-1.139
	c0.144-0.344,0.343-0.637,0.598-0.881c0.254-0.242,0.559-0.431,0.912-0.564c0.354-0.135,0.743-0.202,1.167-0.202
	c0.392,0,0.749,0.067,1.072,0.202c0.323,0.134,0.599,0.318,0.827,0.555c0.229,0.235,0.406,0.514,0.535,0.834
	c0.127,0.32,0.189,0.668,0.189,1.039c0,0.426-0.07,0.813-0.211,1.165c-0.141,0.351-0.341,0.65-0.598,0.897
	c-0.258,0.248-0.564,0.439-0.92,0.576C159.331,35.453,158.938,35.521,158.509,35.521z M158.842,34.899
	c0.254,0,0.465-0.057,0.629-0.166c0.164-0.111,0.295-0.254,0.389-0.43c0.095-0.174,0.16-0.371,0.195-0.587
	c0.035-0.217,0.053-0.429,0.053-0.636c0-0.254-0.027-0.523-0.082-0.807c-0.053-0.282-0.146-0.543-0.271-0.781
	c-0.127-0.238-0.295-0.436-0.502-0.592c-0.207-0.154-0.464-0.233-0.771-0.233c-0.254,0-0.463,0.056-0.629,0.167
	c-0.164,0.109-0.293,0.254-0.389,0.432c-0.094,0.176-0.16,0.373-0.197,0.586c-0.039,0.215-0.058,0.428-0.058,0.641
	c0,0.259,0.028,0.529,0.085,0.813s0.148,0.543,0.275,0.778c0.129,0.235,0.295,0.431,0.502,0.583
	C158.277,34.822,158.535,34.899,158.842,34.899z"/>
<path fill="#0071BC" d="M161.986,30.478c0.255-0.07,0.488-0.131,0.703-0.18s0.403-0.091,0.566-0.124
	c0.163-0.032,0.296-0.057,0.4-0.071c0.104-0.014,0.172-0.021,0.205-0.021c0.141,0,0.219,0.084,0.232,0.254l0.021,0.304
	c0.212-0.084,0.423-0.164,0.633-0.236c0.209-0.073,0.41-0.135,0.602-0.188c0.189-0.052,0.366-0.093,0.528-0.124
	c0.163-0.03,0.302-0.046,0.415-0.046c0.311,0,0.566,0.059,0.768,0.174c0.199,0.114,0.354,0.278,0.463,0.49
	c0.5-0.227,0.951-0.395,1.354-0.502s0.739-0.163,1.008-0.163c0.27,0,0.5,0.042,0.693,0.127c0.193,0.084,0.352,0.203,0.474,0.354
	c0.123,0.149,0.214,0.332,0.272,0.548c0.059,0.215,0.089,0.452,0.089,0.711l-0.035,3.401c0,0.112-0.058,0.179-0.17,0.197
	c-0.076,0.016-0.16,0.027-0.251,0.039c-0.092,0.012-0.182,0.021-0.27,0.029c-0.088,0.007-0.166,0.012-0.24,0.014
	c-0.073,0.004-0.127,0.004-0.159,0.004c-0.113,0-0.17-0.06-0.17-0.176l0.034-2.816v-0.105c0-0.254-0.021-0.477-0.06-0.668
	c-0.04-0.191-0.106-0.352-0.202-0.48c-0.094-0.131-0.218-0.229-0.371-0.295c-0.153-0.064-0.343-0.098-0.568-0.098
	c-0.039,0-0.098,0.005-0.178,0.018c-0.08,0.012-0.176,0.03-0.287,0.057c-0.11,0.025-0.233,0.063-0.371,0.109
	c-0.137,0.047-0.278,0.105-0.424,0.176c0.047,0.17,0.07,0.393,0.07,0.666l-0.035,3.33c0,0.113-0.057,0.181-0.17,0.199
	c-0.074,0.014-0.158,0.026-0.25,0.038c-0.093,0.013-0.183,0.021-0.271,0.029c-0.086,0.007-0.166,0.012-0.24,0.014
	c-0.073,0.003-0.125,0.005-0.159,0.005c-0.113,0-0.17-0.06-0.17-0.177l0.035-2.815v-0.106c0-0.504-0.084-0.888-0.255-1.151
	c-0.169-0.265-0.466-0.396-0.892-0.396c-0.08,0-0.232,0.023-0.457,0.07c-0.224,0.047-0.486,0.14-0.787,0.276v4.017
	c0,0.113-0.058,0.18-0.17,0.199c-0.076,0.014-0.16,0.026-0.252,0.038c-0.092,0.013-0.182,0.021-0.269,0.029
	c-0.088,0.007-0.168,0.012-0.241,0.015c-0.072,0.002-0.126,0.004-0.158,0.004c-0.113,0-0.17-0.061-0.17-0.177v-3.854
	c0-0.25-0.041-0.42-0.119-0.512c-0.08-0.093-0.209-0.138-0.383-0.138c-0.048,0-0.095,0-0.145,0.003
	c-0.051,0.003-0.11,0.012-0.182,0.025L161.986,30.478z"/>
<path fill="#0071BC" d="M173.208,31.44c0-0.25-0.04-0.42-0.12-0.512c-0.08-0.093-0.208-0.138-0.381-0.138
	c-0.048,0-0.096,0-0.146,0.003c-0.049,0.003-0.108,0.012-0.18,0.025l-0.042-0.34c0.255-0.07,0.489-0.131,0.704-0.181
	s0.402-0.091,0.566-0.124c0.162-0.033,0.295-0.057,0.398-0.07c0.104-0.015,0.172-0.021,0.205-0.021c0.143,0,0.219,0.084,0.232,0.254
	l0.021,0.303c0.231-0.08,0.46-0.156,0.689-0.229c0.229-0.073,0.445-0.136,0.65-0.19s0.395-0.097,0.565-0.127
	c0.172-0.031,0.317-0.046,0.437-0.046c0.287,0,0.543,0.077,0.77,0.229c0.227,0.154,0.418,0.351,0.576,0.591
	c0.158,0.241,0.279,0.508,0.365,0.803c0.084,0.295,0.127,0.581,0.127,0.858c0,0.496-0.092,0.93-0.272,1.303
	c-0.183,0.373-0.423,0.686-0.726,0.938c-0.301,0.252-0.647,0.44-1.039,0.564c-0.393,0.125-0.799,0.188-1.224,0.188
	c-0.151,0-0.302-0.008-0.452-0.023c-0.151-0.016-0.308-0.041-0.468-0.074v2.949c0,0.113-0.056,0.179-0.169,0.199
	c-0.076,0.013-0.158,0.027-0.251,0.039c-0.091,0.011-0.183,0.021-0.269,0.027c-0.088,0.008-0.166,0.012-0.24,0.014
	s-0.126,0.004-0.16,0.004c-0.113,0-0.169-0.059-0.169-0.176V31.44L173.208,31.44L173.208,31.44z M174.467,34.128
	c0,0.127,0.032,0.241,0.096,0.339c0.063,0.101,0.149,0.183,0.258,0.248c0.107,0.066,0.236,0.117,0.386,0.152
	c0.147,0.034,0.305,0.053,0.47,0.053c1.146,0,1.719-0.589,1.719-1.769c0-0.269-0.033-0.541-0.096-0.819
	c-0.064-0.278-0.158-0.531-0.283-0.757c-0.125-0.227-0.281-0.41-0.47-0.553c-0.188-0.142-0.407-0.211-0.657-0.211
	c-0.096,0-0.27,0.025-0.523,0.078c-0.254,0.051-0.555,0.146-0.898,0.282V34.128L174.467,34.128z"/>
<path fill="#0071BC" d="M179.712,30.634c0.246-0.099,0.487-0.186,0.726-0.261s0.461-0.138,0.672-0.188
	c0.209-0.049,0.4-0.086,0.572-0.112c0.172-0.025,0.314-0.039,0.428-0.039c0.34,0,0.625,0.039,0.855,0.116
	c0.23,0.078,0.417,0.203,0.559,0.373s0.244,0.386,0.305,0.646c0.061,0.262,0.09,0.576,0.085,0.943l-0.035,2.306
	c-0.005,0.146,0.004,0.283,0.028,0.41c0.023,0.128,0.049,0.253,0.078,0.375c0.005,0.005,0.007,0.022,0.007,0.056
	c0,0.071-0.048,0.113-0.142,0.127c-0.063,0.016-0.131,0.027-0.209,0.039c-0.076,0.012-0.156,0.021-0.235,0.029
	c-0.08,0.007-0.161,0.012-0.24,0.014c-0.08,0.004-0.151,0.004-0.212,0.004c-0.053,0-0.092-0.014-0.117-0.043
	c-0.025-0.027-0.046-0.07-0.061-0.127l-0.092-0.34c-0.179,0.08-0.363,0.155-0.552,0.223c-0.188,0.068-0.368,0.127-0.541,0.176
	c-0.172,0.051-0.329,0.09-0.47,0.117c-0.143,0.028-0.257,0.043-0.348,0.043c-0.25,0-0.467-0.047-0.65-0.139
	s-0.335-0.208-0.452-0.346c-0.118-0.139-0.206-0.292-0.262-0.459c-0.058-0.168-0.085-0.327-0.085-0.479
	c0-0.268,0.048-0.496,0.146-0.682c0.096-0.186,0.228-0.34,0.393-0.463c0.146-0.107,0.316-0.198,0.512-0.27
	c0.195-0.07,0.412-0.125,0.646-0.166c0.235-0.039,0.49-0.069,0.765-0.088c0.272-0.019,0.562-0.033,0.862-0.041l0.008-0.242
	c0.005-0.217-0.008-0.412-0.04-0.582c-0.031-0.174-0.086-0.318-0.166-0.437s-0.188-0.207-0.326-0.269
	c-0.137-0.062-0.31-0.092-0.517-0.092c-0.254,0-0.52,0.027-0.795,0.084s-0.59,0.142-0.943,0.254L179.712,30.634z M182.641,32.869
	c-0.223,0.014-0.431,0.026-0.623,0.039c-0.193,0.012-0.371,0.03-0.531,0.053c-0.16,0.024-0.301,0.06-0.424,0.11
	c-0.121,0.05-0.222,0.119-0.297,0.207c-0.056,0.066-0.104,0.148-0.142,0.248s-0.056,0.209-0.056,0.326
	c0,0.1,0.015,0.201,0.046,0.305c0.03,0.104,0.085,0.199,0.163,0.287c0.076,0.087,0.183,0.158,0.314,0.216
	c0.131,0.057,0.299,0.085,0.502,0.085c0.028,0,0.074-0.005,0.137-0.014c0.064-0.01,0.143-0.025,0.233-0.047
	c0.093-0.021,0.194-0.051,0.308-0.088s0.229-0.084,0.348-0.143L182.641,32.869z"/>
<path fill="#0071BC" d="M184.801,30.478c0.256-0.07,0.49-0.131,0.704-0.18s0.403-0.091,0.565-0.124
	c0.162-0.032,0.296-0.057,0.4-0.071c0.104-0.014,0.172-0.021,0.205-0.021c0.141,0,0.219,0.084,0.233,0.254l0.021,0.297
	c0.217-0.079,0.436-0.155,0.654-0.226c0.219-0.071,0.428-0.135,0.626-0.188c0.198-0.055,0.379-0.098,0.544-0.128
	s0.305-0.046,0.417-0.046c0.269,0,0.499,0.042,0.688,0.127c0.191,0.084,0.349,0.203,0.471,0.354c0.123,0.15,0.212,0.334,0.27,0.549
	c0.057,0.214,0.084,0.451,0.084,0.711l-0.035,3.4c0,0.113-0.057,0.18-0.17,0.199c-0.076,0.014-0.158,0.026-0.25,0.038
	c-0.092,0.013-0.182,0.021-0.27,0.029c-0.087,0.007-0.167,0.012-0.241,0.014c-0.071,0.003-0.126,0.005-0.159,0.005
	c-0.113,0-0.168-0.061-0.168-0.177l0.034-2.815v-0.106c0-0.254-0.021-0.478-0.06-0.668c-0.04-0.19-0.107-0.353-0.201-0.483
	c-0.096-0.133-0.217-0.231-0.367-0.298c-0.15-0.065-0.34-0.099-0.566-0.099c-0.084,0-0.244,0.023-0.478,0.07
	s-0.508,0.14-0.823,0.276v4.017c0,0.113-0.058,0.18-0.17,0.199c-0.076,0.014-0.16,0.026-0.251,0.038
	c-0.093,0.013-0.182,0.021-0.271,0.029c-0.086,0.007-0.166,0.012-0.239,0.015c-0.073,0.002-0.126,0.004-0.159,0.004
	c-0.113,0-0.17-0.061-0.17-0.177v-3.854c0-0.25-0.04-0.42-0.12-0.512c-0.079-0.093-0.208-0.138-0.382-0.138
	c-0.047,0-0.096,0-0.145,0.003s-0.11,0.012-0.182,0.025L184.801,30.478z"/>
<path fill="#0071BC" d="M195.805,30.422c0.022-0.062,0.051-0.106,0.084-0.138s0.082-0.055,0.148-0.074
	c0.07-0.02,0.145-0.036,0.219-0.05c0.076-0.015,0.148-0.025,0.221-0.035c0.069-0.009,0.135-0.019,0.193-0.024
	s0.105-0.011,0.139-0.011c0.084,0,0.127,0.028,0.127,0.085c0,0.033-0.013,0.073-0.037,0.12c-0.168,0.335-0.344,0.688-0.525,1.058
	c-0.182,0.371-0.364,0.746-0.548,1.125c-0.185,0.379-0.364,0.758-0.542,1.136c-0.178,0.376-0.346,0.739-0.506,1.089
	c-0.159,0.349-0.307,0.678-0.441,0.986c-0.134,0.309-0.251,0.584-0.35,0.824c-0.086,0.211-0.185,0.444-0.297,0.699
	c-0.113,0.255-0.252,0.492-0.414,0.711c-0.164,0.219-0.355,0.402-0.576,0.547c-0.223,0.146-0.484,0.219-0.786,0.219
	c-0.122,0-0.233-0.019-0.332-0.057c-0.099-0.037-0.185-0.089-0.254-0.156c-0.071-0.065-0.125-0.141-0.163-0.226
	c-0.037-0.085-0.057-0.177-0.057-0.276c0-0.074,0.013-0.154,0.039-0.236c0.025-0.082,0.068-0.156,0.131-0.223
	c0.107,0.062,0.211,0.104,0.311,0.131c0.1,0.024,0.203,0.037,0.313,0.037c0.132,0,0.262-0.021,0.389-0.063
	c0.127-0.042,0.252-0.117,0.375-0.222c0.122-0.106,0.247-0.25,0.372-0.428c0.125-0.181,0.251-0.408,0.378-0.687l0.41-0.905
	l-1.76-4.031c-0.094-0.222-0.193-0.371-0.297-0.445c-0.104-0.075-0.229-0.113-0.375-0.113c-0.047,0-0.098,0.002-0.148,0.006
	c-0.053,0.005-0.105,0.012-0.163,0.021l-0.042-0.338c0.193-0.058,0.389-0.108,0.587-0.155c0.199-0.048,0.382-0.089,0.552-0.124
	s0.313-0.063,0.432-0.082c0.117-0.02,0.191-0.028,0.226-0.028c0.071,0,0.123,0.022,0.156,0.065c0.032,0.046,0.065,0.109,0.1,0.188
	l1.365,3.522h0.028L195.805,30.422z"/>
<path fill="#333333" d="M62.957,19.327h-8.931l-1.464,3.221h-3.49l7.662-17.081h3.514l7.662,17.081h-3.514L62.957,19.327z
	 M58.491,9.054l-3.172,7.271h6.344L58.491,9.054z"/>
<path fill="#333333" d="M80.088,10.494l-5.125,12.104h-3.221l-5.149-12.104h3.246l1.659,3.978l1.854,5.075l1.831-5.027l1.659-4.026
	H80.088L80.088,10.494L80.088,10.494z"/>
<path fill="#333333" d="M84.773,7.126c0,2.318-3.514,2.318-3.514,0S84.773,4.809,84.773,7.126z M81.528,10.469v12.079h2.977V10.469
	H81.528L81.528,10.469z"/>
<path fill="#333333" d="M96.731,10.518h2.854v12.03H96.78l-0.147-1.757c-0.683,1.416-2.562,2.099-3.903,2.123
	c-3.563,0.025-6.199-2.171-6.199-6.393c0-4.148,2.758-6.32,6.271-6.295c1.61,0,3.147,0.756,3.831,1.952L96.731,10.518z
	 M89.508,16.521c0,2.293,1.586,3.66,3.563,3.66c4.685,0,4.685-7.296,0-7.296C91.094,12.885,89.508,14.227,89.508,16.521z"/>
<path fill="#333333" d="M105.784,7.126v3.417h3.319v2.563h-3.344v5.197c0,1.146,0.635,1.708,1.563,1.708
	c0.463,0,1-0.146,1.438-0.366l0.83,2.538c-0.854,0.341-1.563,0.488-2.465,0.512c-2.609,0.098-4.318-1.39-4.318-4.392v-5.197h-2.246
	v-2.562h2.246v-3.1L105.784,7.126z"/>
<path fill="#333333" d="M114.081,10.518l0.22,1.392c0.928-1.489,2.172-1.708,3.393-1.708c1.244,0,2.439,0.488,3.1,1.147
	l-1.342,2.586c-0.61-0.512-1.172-0.781-2.146-0.781c-1.563,0-3.002,0.83-3.002,3.05v6.344h-2.977v-12.03H114.081L114.081,10.518z"/>
<path fill="#333333" d="M131.456,10.518h2.854v12.03h-2.807l-0.146-1.757c-0.683,1.416-2.563,2.099-3.903,2.123
	c-3.563,0.025-6.197-2.171-6.197-6.393c0-4.148,2.757-6.32,6.271-6.295c1.611,0,3.148,0.756,3.832,1.952L131.456,10.518z
	 M124.232,16.521c0,2.293,1.586,3.66,3.563,3.66c4.686,0,4.686-7.296,0-7.296C125.818,12.885,124.232,14.227,124.232,16.521z"/>
<path fill="#333333" d="M149.318,5.492v17.057h-2.782l-0.195-1.66c-0.927,1.44-2.416,1.928-3.879,1.928
	c-3.538,0-6.198-2.342-6.198-6.295c0-4.148,2.61-6.296,6.125-6.296c1.27,0,3.245,0.684,3.953,1.928V5.492H149.318z M139.241,16.521
	c0,2.099,1.513,3.538,3.416,3.538c1.879,0,3.489-1.366,3.489-3.538c0-2.099-1.61-3.514-3.489-3.514
	C140.753,13.007,139.241,14.349,139.241,16.521z"/>
<path fill="#333333" d="M154.711,17.595c0.195,1.488,1.488,2.562,3.587,2.562c1.099,0,2.538-0.415,3.222-1.122l1.902,1.878
	c-1.27,1.318-3.343,1.952-5.173,1.952c-4.147,0-6.612-2.562-6.612-6.417c0-3.66,2.489-6.295,6.393-6.295
	c4.027,0,6.539,2.489,6.076,7.442H154.711L154.711,17.595z M161.251,15.13c-0.194-1.562-1.415-2.343-3.124-2.343
	c-1.609,0-2.928,0.781-3.367,2.343H161.251z"/>
<path fill="#333333" d="M169.841,21.012c0,2.317-3.514,2.317-3.514,0C166.327,18.693,169.841,18.693,169.841,21.012z"/>
<path fill="#333333" d="M175.355,10.518v6.296c0,1.83,1,3.221,2.904,3.221c1.831,0,3.074-1.538,3.074-3.367v-6.15h2.953v12.054
	h-2.659l-0.194-1.634c-1.246,1.221-2.393,1.806-4.076,1.806c-2.879,0-4.979-2.171-4.979-5.905v-6.321H175.355L175.355,10.518z"/>
<path fill="#333333" d="M194.779,13.715c-0.854-0.806-1.829-1.074-2.977-1.074c-1.414,0-2.195,0.439-2.195,1.195
	c0,0.781,0.707,1.22,2.244,1.318c2.27,0.146,5.148,0.659,5.148,3.855c0,2.123-1.73,3.952-5.173,3.952
	c-1.903,0-3.806-0.317-5.563-2.147l1.465-2.123c0.854,0.952,2.806,1.66,4.147,1.684c1.123,0.024,2.171-0.561,2.171-1.439
	c0-0.83-0.684-1.172-2.391-1.27c-2.271-0.17-4.979-1-4.979-3.733c0-2.781,2.88-3.758,5.076-3.758c1.879,0,3.294,0.366,4.685,1.587
	L194.779,13.715z"/>
<path fill="#0071BC" d="M19.677,33.634c0.024-0.277,0.047-0.557,0.067-0.834l0.27-0.169l5.235-0.403l0.007-1.68h0.001h-0.001
	l0.002-0.197l-5.018-0.862c0.361-3.205,0.971-8.445,1-10.298l0.8-0.062l7.987-0.501v0.004l3.498-0.212v-0.012l0.198-0.014
	c0,0,0.099-1.74,0.09-2.04c-0.009-0.298-0.035-0.946-0.27-0.983l-12.351-1.086c-0.048-2.903-0.313-5.956-0.566-7.017
	c-0.111-0.471-0.191-0.448-0.408-0.448c-0.071,0-0.11-0.008-0.133-0.03V6.786l0,0c-0.015-0.014-0.023-0.036-0.023-0.067
	c0-0.599-0.265-1.332-0.385-1.332c-0.121,0-0.385,0.732-0.385,1.332c0,0.032-0.009,0.053-0.022,0.067c-0.001,0-0.001,0-0.002,0
	l0.001,0.003c-0.022,0.022-0.062,0.03-0.133,0.03c-0.217,0-0.297-0.022-0.409,0.448c-0.252,1.061-0.516,4.113-0.564,7.017
	L5.811,15.37c-0.234,0.037-0.262,0.685-0.271,0.983c-0.009,0.299,0.091,2.04,0.091,2.04l0.199,0.014v0.012l3.497,0.212v-0.004
	l7.988,0.501l0.798-0.15c0.012,0.715,0.11,1.968,0.247,3.419l0.006,0.098l0.002-0.001c0.216,2.292,0.526,5.054,0.744,6.995
	l-5.017,0.861l0.001,0.198h-0.001h0.001l0.008,1.681l5.234,0.402l0.269,0.169C19.629,33.077,19.652,33.356,19.677,33.634z"/>
<path fill="#999999" d="M30.17,3.052c2.93,1.645,5.271,3.884,6.924,6.858c2.835,5.1,2.885,10.422,0.8,15.668
	c-2.275,5.722-6.597,9.282-12.729,10.478C17.441,37.56,9.093,34.185,4.89,27.608c-6.3-9.856-2.165-22.806,9.018-26.625
	c4.38-1.495,8.609-1.288,12.8,0.642c-0.615-0.132-1.225-0.285-1.844-0.391C16.705-0.174,8.708,4.112,5.321,11.705
	c-3.035,6.804-0.626,16.374,5.298,20.827c4.008,3.013,8.603,3.222,13.229,2.21c7.086-1.548,12.332-7.16,13.328-13.962
	c1.028-7.024-1.271-12.768-6.844-17.181c-0.129-0.103-0.303-0.15-0.455-0.225C29.975,3.267,30.072,3.16,30.17,3.052z"/>
<path fill="#0071BC" d="M3.836,7.051C1.001,12.478,0.361,18.08,2.427,23.896c1.524,4.294,4.184,7.681,8.012,10.176
	c6.983,4.553,19.467,4.976,27.322-5.438c-0.284,3.091-7.532,8.886-12.314,10.063c-9.406,2.314-18.711-2.186-22.935-9.565
	C-1.649,21.861-0.246,12.337,3.836,7.051z"/>
<path fill="#29ABE2" d="M7.948,9.034c3.657-5.345,8.819-7.72,15.179-7.066c5.796,0.596,9.934,3.813,12.277,9.161
	c2.312,5.279,1.623,10.332-1.459,15.125c1.845-3.857,2.13-7.862,0.934-11.925c-1.208-4.097-3.789-7.152-7.585-9.124
	C22.245,2.586,14.01,2.356,7.948,9.034z"/>
</svg>
