<?xml version="1.0" encoding="utf-8"?>
<!-- Generator: Adobe Illustrator 15.1.0, SVG Export Plug-In  -->
<!DOCTYPE svg PUBLIC "-//W3C//DTD SVG 1.1//EN" "http://www.w3.org/Graphics/SVG/1.1/DTD/svg11.dtd" [
	<!ENTITY ns_flows "http://ns.adobe.com/Flows/1.0/">
]>
<svg version="1.1"
	 xmlns="http://www.w3.org/2000/svg" xmlns:xlink="http://www.w3.org/1999/xlink" xmlns:a="http://ns.adobe.com/AdobeSVGViewerExtensions/3.0/"
	 x="0px" y="0px" width="197px" height="54px" viewBox="0 -14.689 197 54" enable-background="new 0 -14.689 197 54"
	 xml:space="preserve">
<defs>
</defs>
<path fill="#0071BC" d="M51.592,32.417l-1.089,2.935c-0.02,0.052-0.062,0.083-0.127,0.092c-0.084,0.009-0.182,0.016-0.29,0.021
	c-0.109,0.004-0.231,0.007-0.368,0.007c-0.076,0-0.113-0.023-0.113-0.071c0-0.015,0.003-0.026,0.007-0.035l3.239-7.766l-0.148-0.41
	c-0.01-0.038-0.015-0.063-0.015-0.078c0-0.07,0.045-0.113,0.134-0.127c0.075-0.015,0.164-0.027,0.266-0.04
	c0.102-0.012,0.199-0.022,0.293-0.031c0.094-0.009,0.182-0.017,0.262-0.021c0.08-0.005,0.139-0.007,0.176-0.007
	c0.094,0,0.163,0.054,0.205,0.163l3.154,8.119c0.014,0.038,0.021,0.064,0.021,0.078c0,0.08-0.047,0.127-0.142,0.141
	c-0.084,0.015-0.18,0.027-0.286,0.039c-0.106,0.012-0.21,0.021-0.311,0.029c-0.102,0.007-0.195,0.012-0.279,0.014
	c-0.085,0.003-0.146,0.004-0.184,0.004c-0.08,0-0.134-0.035-0.162-0.106l-1.153-2.999L51.592,32.417z M51.818,31.816h2.652
	l-1.344-3.508L51.818,31.816z"/>
<path fill="#0071BC" d="M68.624,35.126c0,0.052-0.026,0.09-0.077,0.113c-0.401,0.123-0.811,0.211-1.231,0.266
	c-0.419,0.054-0.844,0.081-1.272,0.081c-0.703,0-1.346-0.096-1.931-0.286c-0.584-0.191-1.087-0.469-1.506-0.834
	c-0.42-0.365-0.746-0.815-0.979-1.351c-0.233-0.535-0.351-1.146-0.351-1.835c0-0.707,0.124-1.33,0.372-1.867
	c0.248-0.538,0.589-0.987,1.025-1.347c0.436-0.361,0.952-0.634,1.546-0.817c0.593-0.185,1.24-0.276,1.938-0.276
	c0.401,0,0.778,0.023,1.131,0.071c0.354,0.047,0.7,0.108,1.04,0.184c0.052,0.009,0.089,0.029,0.11,0.06
	c0.021,0.031,0.034,0.063,0.039,0.096c0.005,0.065,0.011,0.15,0.018,0.254c0.007,0.104,0.013,0.216,0.018,0.336
	c0.004,0.12,0.011,0.243,0.018,0.367c0.007,0.125,0.013,0.24,0.018,0.346c0.004,0.107,0.008,0.197,0.011,0.272
	c0.002,0.076,0.003,0.124,0.003,0.142l-0.354,0.036c-0.038-0.297-0.131-0.547-0.279-0.75c-0.149-0.203-0.332-0.367-0.548-0.491
	c-0.217-0.125-0.457-0.215-0.722-0.269c-0.263-0.054-0.528-0.082-0.792-0.082c-0.519,0-0.975,0.082-1.369,0.244
	c-0.394,0.163-0.723,0.393-0.987,0.69c-0.264,0.297-0.462,0.653-0.594,1.068c-0.132,0.415-0.198,0.875-0.198,1.378
	c0,0.594,0.083,1.138,0.248,1.631c0.165,0.492,0.411,0.916,0.739,1.27c0.328,0.354,0.736,0.628,1.224,0.824s1.055,0.293,1.701,0.293
	c0.108,0,0.22-0.002,0.336-0.007c0.115-0.005,0.234-0.014,0.357-0.029v-2.22c0-0.137-0.009-0.248-0.028-0.333
	c-0.019-0.085-0.05-0.149-0.096-0.194c-0.044-0.045-0.102-0.076-0.172-0.092c-0.071-0.016-0.158-0.025-0.262-0.025
	c-0.033,0-0.067,0.001-0.103,0.004c-0.035,0.002-0.071,0.003-0.109,0.003l-0.035-0.396c0.254-0.019,0.489-0.033,0.704-0.045
	c0.215-0.012,0.403-0.022,0.566-0.029s0.297-0.012,0.403-0.014c0.106-0.002,0.176-0.004,0.208-0.004
	c0.151,0,0.227,0.076,0.227,0.227L68.624,35.126L68.624,35.126L68.624,35.126z"/>
<path fill="#0071BC" d="M69.562,26.25c0.518-0.141,0.945-0.241,1.28-0.3c0.334-0.059,0.535-0.089,0.601-0.089
	c0.151,0,0.226,0.084,0.226,0.254v9.074c0,0.113-0.057,0.179-0.169,0.198c-0.081,0.015-0.166,0.027-0.258,0.039
	c-0.092,0.012-0.181,0.021-0.265,0.029c-0.085,0.007-0.163,0.012-0.234,0.014c-0.07,0.003-0.125,0.004-0.162,0.004
	c-0.113,0-0.169-0.06-0.169-0.176v-8.077c0-0.249-0.04-0.42-0.12-0.513c-0.081-0.092-0.212-0.138-0.396-0.138
	c-0.09,0-0.186,0.007-0.29,0.021L69.562,26.25z"/>
<path fill="#0071BC" d="M75.507,35.522c-0.391,0-0.746-0.07-1.064-0.209c-0.319-0.139-0.593-0.329-0.824-0.569
	s-0.409-0.525-0.534-0.853c-0.125-0.327-0.187-0.68-0.187-1.057c0-0.415,0.072-0.794,0.215-1.138
	c0.144-0.344,0.343-0.638,0.598-0.881c0.255-0.243,0.559-0.431,0.913-0.565c0.354-0.135,0.742-0.202,1.167-0.202
	c0.391,0,0.748,0.067,1.072,0.202c0.323,0.134,0.598,0.319,0.827,0.555c0.229,0.236,0.407,0.514,0.535,0.834
	c0.127,0.321,0.19,0.667,0.19,1.039c0,0.425-0.07,0.813-0.211,1.165c-0.141,0.351-0.341,0.65-0.598,0.897
	c-0.257,0.248-0.563,0.439-0.919,0.577C76.328,35.454,75.937,35.522,75.507,35.522z M75.839,34.9c0.254,0,0.464-0.056,0.629-0.166
	c0.165-0.111,0.295-0.254,0.389-0.429s0.159-0.371,0.194-0.587c0.035-0.217,0.053-0.429,0.053-0.636
	c0-0.254-0.027-0.523-0.082-0.806c-0.055-0.283-0.146-0.544-0.272-0.782c-0.128-0.238-0.294-0.436-0.502-0.591
	c-0.207-0.155-0.464-0.234-0.771-0.234c-0.254,0-0.464,0.056-0.629,0.167c-0.165,0.11-0.295,0.254-0.389,0.431
	c-0.094,0.176-0.161,0.373-0.198,0.586c-0.038,0.215-0.057,0.428-0.057,0.641c0,0.259,0.029,0.53,0.085,0.813
	c0.057,0.283,0.148,0.542,0.276,0.778s0.294,0.431,0.501,0.583C75.276,34.823,75.533,34.9,75.839,34.9z"/>
<path fill="#0071BC" d="M81.007,30.593c0.236-0.071,0.471-0.139,0.707-0.205c0.235-0.066,0.459-0.124,0.672-0.174
	c0.212-0.048,0.404-0.089,0.577-0.12c0.172-0.03,0.314-0.046,0.428-0.046c0.273,0,0.521,0.077,0.743,0.23
	c0.221,0.152,0.41,0.35,0.565,0.589c0.156,0.241,0.276,0.508,0.36,0.803c0.085,0.294,0.127,0.581,0.127,0.859
	c0,0.505-0.091,0.943-0.272,1.316c-0.182,0.372-0.426,0.683-0.732,0.933c-0.306,0.25-0.661,0.437-1.064,0.559
	c-0.402,0.122-0.826,0.184-1.269,0.184c-0.217,0-0.435-0.013-0.655-0.038c-0.219-0.027-0.424-0.063-0.615-0.11
	c-0.19-0.047-0.359-0.102-0.505-0.162c-0.146-0.063-0.254-0.128-0.326-0.199v-7.794c0-0.25-0.04-0.42-0.12-0.513
	c-0.081-0.092-0.212-0.138-0.396-0.138c-0.09,0-0.187,0.007-0.29,0.021L78.9,26.25c0.518-0.141,0.945-0.241,1.279-0.301
	c0.335-0.059,0.536-0.088,0.602-0.088c0.15,0,0.226,0.084,0.226,0.254L81.007,30.593L81.007,30.593L81.007,30.593z M81.007,34.094
	c0,0.155,0.039,0.286,0.117,0.392c0.078,0.106,0.175,0.191,0.293,0.255c0.118,0.064,0.248,0.11,0.389,0.138
	c0.142,0.028,0.278,0.042,0.41,0.042c1.146,0,1.719-0.589,1.719-1.768c0-0.269-0.032-0.542-0.095-0.82
	c-0.065-0.279-0.159-0.531-0.284-0.757c-0.125-0.227-0.278-0.41-0.459-0.552c-0.181-0.142-0.39-0.212-0.625-0.212
	c-0.089,0-0.267,0.024-0.531,0.074c-0.264,0.049-0.575,0.128-0.933,0.236L81.007,34.094L81.007,34.094z"/>
<path fill="#0071BC" d="M86.252,30.635c0.245-0.099,0.486-0.186,0.725-0.261c0.238-0.076,0.462-0.137,0.672-0.188
	c0.21-0.049,0.401-0.087,0.573-0.113c0.171-0.025,0.314-0.039,0.428-0.039c0.339,0,0.625,0.039,0.855,0.117
	c0.231,0.078,0.417,0.202,0.559,0.372c0.141,0.17,0.243,0.386,0.304,0.647c0.061,0.261,0.09,0.576,0.085,0.943l-0.035,2.306
	c-0.004,0.146,0.005,0.283,0.028,0.41c0.024,0.128,0.049,0.253,0.078,0.375c0.005,0.005,0.007,0.023,0.007,0.056
	c0,0.071-0.047,0.113-0.141,0.127c-0.062,0.015-0.131,0.027-0.208,0.039s-0.157,0.021-0.237,0.029
	c-0.08,0.007-0.16,0.012-0.24,0.014c-0.081,0.003-0.151,0.004-0.212,0.004c-0.051,0-0.09-0.014-0.117-0.043
	c-0.025-0.028-0.045-0.07-0.06-0.127l-0.092-0.34c-0.179,0.08-0.363,0.155-0.551,0.223c-0.189,0.068-0.369,0.127-0.541,0.176
	c-0.172,0.05-0.329,0.089-0.471,0.117c-0.141,0.028-0.257,0.042-0.346,0.042c-0.25,0-0.467-0.046-0.65-0.138
	c-0.184-0.092-0.335-0.208-0.453-0.346s-0.205-0.292-0.261-0.459c-0.057-0.168-0.085-0.327-0.085-0.478
	c0-0.268,0.048-0.496,0.145-0.682c0.097-0.186,0.227-0.34,0.392-0.463c0.146-0.108,0.318-0.198,0.513-0.269
	c0.196-0.071,0.411-0.126,0.647-0.166s0.491-0.07,0.764-0.088c0.274-0.019,0.562-0.033,0.864-0.042l0.006-0.241
	c0.005-0.217-0.008-0.412-0.039-0.583c-0.031-0.173-0.086-0.318-0.167-0.436s-0.188-0.207-0.325-0.269
	c-0.137-0.061-0.308-0.092-0.516-0.092c-0.255,0-0.52,0.028-0.796,0.085c-0.275,0.056-0.59,0.141-0.944,0.254L86.252,30.635z
	 M89.18,32.87c-0.222,0.014-0.429,0.027-0.623,0.039c-0.193,0.012-0.37,0.03-0.531,0.053c-0.16,0.024-0.302,0.06-0.423,0.11
	c-0.123,0.05-0.222,0.12-0.297,0.208c-0.058,0.066-0.104,0.148-0.142,0.248s-0.056,0.208-0.056,0.326c0,0.099,0.015,0.2,0.046,0.304
	c0.031,0.104,0.085,0.199,0.163,0.287c0.078,0.087,0.183,0.159,0.314,0.216c0.132,0.057,0.3,0.085,0.502,0.085
	c0.028,0,0.074-0.005,0.138-0.014c0.063-0.01,0.142-0.025,0.233-0.047s0.194-0.05,0.307-0.088c0.114-0.037,0.229-0.084,0.347-0.142
	L89.18,32.87z"/>
<path fill="#0071BC" d="M91.256,26.25c0.519-0.141,0.945-0.241,1.28-0.3c0.335-0.059,0.535-0.089,0.601-0.089
	c0.151,0,0.226,0.084,0.226,0.254v9.074c0,0.113-0.057,0.179-0.169,0.198c-0.08,0.015-0.167,0.027-0.258,0.039
	c-0.092,0.012-0.181,0.021-0.265,0.029c-0.085,0.007-0.162,0.012-0.233,0.014c-0.07,0.003-0.125,0.004-0.163,0.004
	c-0.113,0-0.17-0.06-0.17-0.176v-8.077c0-0.249-0.04-0.42-0.12-0.513s-0.212-0.138-0.396-0.138c-0.09,0-0.187,0.007-0.29,0.021
	L91.256,26.25z"/>
<path fill="#0071BC" d="M100.24,31.138c0.363-0.023,0.684-0.076,0.962-0.156c0.277-0.08,0.509-0.197,0.696-0.35
	c0.186-0.153,0.328-0.347,0.424-0.583c0.097-0.235,0.145-0.521,0.145-0.855c0-0.278-0.051-0.521-0.155-0.729
	c-0.104-0.207-0.248-0.378-0.432-0.513c-0.184-0.134-0.401-0.234-0.65-0.301c-0.25-0.065-0.519-0.098-0.806-0.098
	c-0.189,0-0.331,0.015-0.424,0.045c-0.095,0.031-0.142,0.117-0.142,0.259v7.333c0,0.113-0.057,0.18-0.169,0.198
	c-0.08,0.015-0.168,0.027-0.265,0.039s-0.191,0.021-0.283,0.028c-0.093,0.007-0.177,0.012-0.255,0.014
	c-0.078,0.002-0.136,0.004-0.173,0.004c-0.113,0-0.169-0.06-0.169-0.177v-7.095c0-0.235-0.052-0.393-0.156-0.47
	s-0.238-0.117-0.403-0.117c-0.094,0-0.198,0.007-0.311,0.021l-0.042-0.389c0.472-0.08,0.961-0.147,1.468-0.202
	c0.507-0.054,1.024-0.081,1.553-0.081c0.226,0,0.464,0.009,0.714,0.028c0.25,0.02,0.495,0.054,0.736,0.106s0.469,0.124,0.686,0.216
	c0.217,0.092,0.407,0.212,0.569,0.361c0.163,0.149,0.292,0.328,0.389,0.538c0.096,0.21,0.145,0.458,0.145,0.746
	c0,0.307-0.046,0.577-0.138,0.811c-0.092,0.233-0.219,0.44-0.382,0.618c-0.163,0.18-0.353,0.333-0.569,0.46
	c-0.217,0.127-0.451,0.236-0.7,0.325v0.042c0.118,0.024,0.245,0.061,0.382,0.11c0.137,0.049,0.27,0.119,0.4,0.212
	c0.129,0.092,0.25,0.208,0.36,0.35c0.111,0.141,0.199,0.315,0.265,0.523l0.523,1.619c0.07,0.221,0.135,0.398,0.194,0.53
	c0.059,0.132,0.122,0.232,0.188,0.301c0.066,0.068,0.142,0.113,0.226,0.134c0.084,0.022,0.191,0.032,0.318,0.032l0.021,0.368
	c-0.089,0.019-0.188,0.036-0.293,0.052c-0.106,0.017-0.211,0.031-0.315,0.039c-0.104,0.009-0.197,0.019-0.279,0.025
	c-0.083,0.007-0.145,0.011-0.188,0.011c-0.151,0-0.285-0.018-0.403-0.053c-0.118-0.035-0.224-0.097-0.318-0.184
	c-0.094-0.087-0.178-0.203-0.251-0.347c-0.073-0.144-0.141-0.324-0.202-0.541l-0.502-1.726c-0.07-0.245-0.155-0.441-0.254-0.587
	c-0.099-0.146-0.222-0.258-0.371-0.336s-0.328-0.129-0.538-0.155c-0.209-0.026-0.463-0.043-0.76-0.053L100.24,31.138z"/>
<path fill="#0071BC" d="M110.118,34.78c-0.226,0.108-0.465,0.208-0.714,0.3c-0.25,0.092-0.494,0.171-0.732,0.238
	c-0.238,0.065-0.459,0.116-0.664,0.151c-0.205,0.036-0.376,0.053-0.514,0.053c-0.382,0-0.72-0.072-1.014-0.216
	c-0.294-0.144-0.542-0.334-0.743-0.572c-0.2-0.238-0.352-0.513-0.456-0.825c-0.104-0.311-0.155-0.634-0.155-0.969
	c0-0.434,0.08-0.829,0.241-1.185c0.16-0.355,0.378-0.66,0.653-0.912c0.276-0.253,0.598-0.448,0.965-0.587
	c0.368-0.14,0.757-0.209,1.167-0.209c0.269,0,0.506,0.041,0.714,0.124c0.208,0.083,0.382,0.196,0.523,0.34
	c0.142,0.144,0.25,0.317,0.326,0.52c0.075,0.203,0.113,0.424,0.113,0.665c0,0.208-0.04,0.467-0.12,0.778l-3.324,0.177
	c0.019,0.297,0.078,0.568,0.177,0.813c0.099,0.246,0.239,0.458,0.421,0.636c0.181,0.18,0.403,0.318,0.665,0.417
	c0.261,0.1,0.562,0.148,0.902,0.148c0.226,0,0.467-0.026,0.725-0.081c0.257-0.054,0.487-0.122,0.689-0.202L110.118,34.78z
	 M108.548,32.064c0.014-0.066,0.023-0.129,0.028-0.191c0.005-0.061,0.007-0.124,0.007-0.19c0-0.132-0.021-0.257-0.06-0.375
	s-0.098-0.22-0.173-0.307c-0.076-0.087-0.17-0.155-0.283-0.206c-0.113-0.049-0.24-0.074-0.382-0.074
	c-0.226,0-0.42,0.042-0.583,0.124c-0.163,0.082-0.297,0.191-0.403,0.329c-0.106,0.137-0.185,0.296-0.237,0.478
	c-0.052,0.182-0.08,0.371-0.085,0.569L108.548,32.064z"/>
<path fill="#0071BC" d="M110.285,26.25c0.519-0.141,0.945-0.241,1.28-0.3s0.535-0.089,0.601-0.089c0.151,0,0.226,0.084,0.226,0.254
	v9.074c0,0.113-0.056,0.179-0.169,0.198c-0.08,0.015-0.166,0.027-0.258,0.039c-0.092,0.012-0.181,0.021-0.266,0.029
	c-0.084,0.007-0.162,0.012-0.233,0.014c-0.071,0.003-0.125,0.004-0.163,0.004c-0.113,0-0.169-0.06-0.169-0.176v-8.077
	c0-0.249-0.04-0.42-0.12-0.513c-0.081-0.092-0.212-0.138-0.396-0.138c-0.089,0-0.186,0.007-0.29,0.021L110.285,26.25z"/>
<path fill="#0071BC" d="M113.917,30.635c0.246-0.099,0.487-0.186,0.725-0.261c0.238-0.075,0.462-0.137,0.672-0.188
	c0.209-0.049,0.401-0.087,0.573-0.113c0.172-0.025,0.315-0.039,0.429-0.039c0.339,0,0.625,0.039,0.855,0.117
	c0.231,0.078,0.417,0.202,0.559,0.372c0.141,0.17,0.243,0.386,0.304,0.647c0.061,0.261,0.089,0.576,0.084,0.943l-0.035,2.306
	c-0.005,0.146,0.004,0.283,0.028,0.41c0.023,0.128,0.05,0.253,0.078,0.375c0.005,0.005,0.007,0.023,0.007,0.056
	c0,0.071-0.047,0.113-0.142,0.127c-0.061,0.015-0.131,0.027-0.208,0.039s-0.156,0.021-0.236,0.029
	c-0.08,0.007-0.16,0.012-0.241,0.014c-0.08,0.003-0.151,0.004-0.212,0.004c-0.052,0-0.091-0.014-0.117-0.043
	c-0.026-0.028-0.046-0.07-0.06-0.127l-0.092-0.34c-0.179,0.08-0.363,0.155-0.552,0.223c-0.189,0.068-0.369,0.127-0.541,0.176
	c-0.172,0.05-0.329,0.089-0.47,0.117c-0.142,0.028-0.257,0.042-0.347,0.042c-0.25,0-0.467-0.046-0.651-0.138
	s-0.335-0.208-0.452-0.346c-0.118-0.139-0.205-0.292-0.262-0.459c-0.057-0.168-0.084-0.327-0.084-0.478
	c0-0.268,0.048-0.496,0.145-0.682c0.096-0.186,0.227-0.34,0.392-0.463c0.146-0.108,0.317-0.198,0.513-0.269
	c0.196-0.071,0.412-0.126,0.647-0.166c0.235-0.04,0.49-0.07,0.764-0.088c0.273-0.019,0.562-0.033,0.863-0.042l0.007-0.241
	c0.004-0.217-0.008-0.412-0.039-0.583c-0.031-0.173-0.086-0.318-0.166-0.436s-0.189-0.207-0.325-0.269
	c-0.137-0.061-0.309-0.092-0.517-0.092c-0.254,0-0.52,0.028-0.795,0.085c-0.276,0.056-0.59,0.141-0.944,0.254L113.917,30.635z
	 M116.846,32.87c-0.222,0.014-0.429,0.027-0.622,0.039c-0.193,0.012-0.371,0.03-0.531,0.053c-0.16,0.024-0.302,0.06-0.424,0.11
	s-0.222,0.12-0.297,0.208c-0.057,0.066-0.104,0.148-0.141,0.248s-0.057,0.208-0.057,0.326c0,0.099,0.015,0.2,0.046,0.304
	c0.031,0.104,0.085,0.199,0.163,0.287c0.078,0.087,0.183,0.159,0.315,0.216c0.132,0.057,0.299,0.085,0.501,0.085
	c0.028,0,0.075-0.005,0.138-0.014c0.063-0.01,0.141-0.025,0.233-0.047s0.195-0.05,0.308-0.088c0.112-0.037,0.228-0.084,0.346-0.142
	L116.846,32.87z"/>
<path fill="#0071BC" d="M118.922,30.38c0.123-0.009,0.257-0.019,0.403-0.028c0.146-0.009,0.29-0.019,0.432-0.028v-1.089
	c0-0.099,0.009-0.171,0.028-0.216c0.02-0.044,0.061-0.079,0.127-0.103c0.09-0.033,0.183-0.065,0.279-0.099
	c0.097-0.033,0.188-0.062,0.275-0.089c0.087-0.026,0.165-0.047,0.234-0.064s0.122-0.024,0.16-0.024c0.103,0,0.155,0.059,0.155,0.176
	v1.443c0.316-0.014,0.606-0.024,0.873-0.032c0.266-0.007,0.473-0.011,0.619-0.011c0.038,0,0.072,0.012,0.102,0.036
	c0.031,0.024,0.047,0.062,0.047,0.113v0.014l-0.029,0.438l-1.612,0.007v3.006c0,0.316,0.084,0.546,0.254,0.689
	c0.169,0.144,0.391,0.215,0.665,0.215c0.127,0,0.27-0.016,0.428-0.046c0.158-0.031,0.343-0.086,0.555-0.167l0.148,0.432
	c-0.179,0.08-0.362,0.154-0.548,0.222c-0.186,0.069-0.364,0.128-0.534,0.181c-0.169,0.052-0.324,0.092-0.463,0.12
	c-0.139,0.029-0.247,0.042-0.322,0.042c-0.212,0-0.407-0.033-0.584-0.099c-0.177-0.066-0.329-0.165-0.456-0.297
	c-0.127-0.132-0.226-0.293-0.297-0.485c-0.07-0.19-0.106-0.411-0.106-0.66v-3.147l-0.813,0.021L118.922,30.38z"/>
<path fill="#0071BC" d="M123.234,30.479c0.255-0.071,0.491-0.131,0.708-0.18s0.409-0.091,0.576-0.124
	c0.167-0.033,0.304-0.057,0.41-0.071c0.106-0.014,0.176-0.021,0.208-0.021c0.151,0,0.227,0.084,0.227,0.254v4.852
	c0,0.113-0.056,0.18-0.169,0.198c-0.08,0.014-0.166,0.027-0.258,0.039s-0.18,0.021-0.265,0.029
	c-0.084,0.007-0.163,0.012-0.233,0.013c-0.07,0.003-0.125,0.004-0.163,0.004c-0.112,0-0.169-0.06-0.169-0.177v-3.854
	c0-0.25-0.04-0.42-0.12-0.513c-0.08-0.093-0.206-0.138-0.375-0.138c-0.051,0-0.103,0-0.151,0.003
	c-0.049,0.002-0.109,0.011-0.181,0.024L123.234,30.479z M125.406,27.885c0,0.254-0.068,0.438-0.202,0.551
	c-0.135,0.113-0.329,0.17-0.583,0.17c-0.213,0-0.375-0.064-0.488-0.191c-0.113-0.127-0.17-0.304-0.17-0.53
	c0-0.255,0.07-0.438,0.208-0.548s0.336-0.166,0.591-0.166c0.211,0,0.372,0.063,0.481,0.187
	C125.351,27.482,125.406,27.658,125.406,27.885z"/>
<path fill="#0071BC" d="M129.2,35.522c-0.391,0-0.745-0.07-1.064-0.209c-0.318-0.139-0.594-0.329-0.824-0.569
	c-0.232-0.24-0.41-0.525-0.534-0.853c-0.125-0.327-0.188-0.68-0.188-1.057c0-0.415,0.072-0.794,0.216-1.138
	c0.144-0.344,0.343-0.638,0.598-0.881c0.254-0.243,0.559-0.431,0.913-0.565c0.354-0.135,0.742-0.202,1.167-0.202
	c0.391,0,0.748,0.067,1.071,0.202c0.323,0.134,0.599,0.319,0.828,0.555c0.229,0.235,0.407,0.514,0.534,0.834
	c0.127,0.321,0.191,0.667,0.191,1.039c0,0.425-0.071,0.813-0.212,1.165c-0.142,0.351-0.341,0.65-0.598,0.897
	c-0.257,0.248-0.563,0.439-0.919,0.577C130.022,35.454,129.629,35.522,129.2,35.522z M129.532,34.9c0.255,0,0.465-0.056,0.629-0.166
	c0.165-0.111,0.295-0.254,0.389-0.429s0.159-0.371,0.195-0.587c0.035-0.217,0.053-0.429,0.053-0.636
	c0-0.254-0.028-0.523-0.082-0.806c-0.054-0.283-0.145-0.544-0.273-0.782c-0.127-0.238-0.294-0.436-0.501-0.591
	c-0.208-0.155-0.464-0.234-0.771-0.234c-0.255,0-0.465,0.056-0.63,0.167c-0.165,0.11-0.294,0.254-0.388,0.431
	c-0.094,0.176-0.161,0.373-0.198,0.586c-0.037,0.215-0.057,0.428-0.057,0.641c0,0.259,0.028,0.53,0.085,0.813
	c0.056,0.283,0.148,0.542,0.276,0.778s0.295,0.431,0.502,0.583C128.97,34.823,129.227,34.9,129.532,34.9z"/>
<path fill="#0071BC" d="M132.677,30.479c0.254-0.071,0.489-0.131,0.704-0.18c0.214-0.049,0.403-0.091,0.565-0.124
	c0.163-0.033,0.295-0.057,0.4-0.071c0.104-0.014,0.172-0.021,0.205-0.021c0.142,0,0.219,0.084,0.233,0.254l0.022,0.297
	c0.216-0.08,0.435-0.155,0.654-0.226c0.22-0.071,0.428-0.134,0.626-0.188c0.197-0.054,0.379-0.097,0.544-0.127
	c0.165-0.031,0.303-0.046,0.417-0.046c0.27,0,0.5,0.042,0.69,0.127c0.191,0.084,0.347,0.203,0.47,0.354
	c0.123,0.15,0.212,0.333,0.27,0.548c0.056,0.214,0.084,0.452,0.084,0.711l-0.036,3.401c0,0.113-0.057,0.179-0.169,0.198
	c-0.076,0.014-0.159,0.027-0.251,0.039c-0.092,0.012-0.182,0.021-0.27,0.029c-0.087,0.007-0.167,0.012-0.24,0.014
	c-0.073,0.003-0.126,0.004-0.159,0.004c-0.113,0-0.17-0.06-0.17-0.176l0.035-2.816v-0.106c0-0.254-0.02-0.477-0.06-0.668
	c-0.04-0.191-0.107-0.353-0.202-0.484s-0.217-0.231-0.367-0.297c-0.151-0.065-0.34-0.099-0.566-0.099
	c-0.084,0-0.244,0.024-0.477,0.071c-0.234,0.047-0.508,0.139-0.824,0.276v4.017c0,0.113-0.057,0.179-0.17,0.198
	c-0.076,0.015-0.159,0.027-0.25,0.039c-0.092,0.012-0.182,0.021-0.269,0.029c-0.087,0.007-0.167,0.012-0.24,0.014
	c-0.074,0.003-0.126,0.004-0.16,0.004c-0.113,0-0.17-0.06-0.17-0.176v-3.854c0-0.25-0.04-0.421-0.12-0.513
	c-0.081-0.092-0.208-0.137-0.382-0.137c-0.047,0-0.095,0-0.145,0.003c-0.049,0.003-0.11,0.011-0.181,0.025L132.677,30.479z"/>
<path fill="#0071BC" d="M143.185,31.767c-0.052-0.174-0.104-0.333-0.156-0.474c-0.052-0.141-0.119-0.262-0.201-0.364
	c-0.083-0.102-0.188-0.179-0.315-0.233c-0.127-0.054-0.289-0.082-0.487-0.082c-0.123,0-0.245,0.012-0.368,0.035
	c-0.123,0.024-0.233,0.062-0.333,0.113c-0.099,0.052-0.179,0.12-0.24,0.205s-0.092,0.191-0.092,0.318
	c0,0.127,0.035,0.239,0.106,0.333s0.165,0.178,0.283,0.251c0.118,0.073,0.255,0.14,0.41,0.202c0.155,0.061,0.316,0.122,0.481,0.184
	c0.198,0.07,0.394,0.151,0.587,0.24c0.193,0.089,0.366,0.195,0.52,0.318c0.153,0.123,0.278,0.268,0.375,0.436
	c0.097,0.167,0.146,0.366,0.146,0.598c0,0.297-0.077,0.552-0.23,0.764c-0.153,0.212-0.35,0.386-0.591,0.52
	c-0.24,0.134-0.505,0.233-0.795,0.297c-0.29,0.064-0.572,0.095-0.845,0.095c-0.166,0-0.352-0.018-0.559-0.053
	c-0.208-0.035-0.402-0.093-0.583-0.173c-0.181-0.081-0.333-0.186-0.456-0.318c-0.122-0.132-0.183-0.295-0.183-0.488
	c0-0.231,0.077-0.398,0.233-0.502c0.156-0.103,0.354-0.155,0.594-0.155c0.052,0,0.097,0,0.134,0.003
	c0.038,0.003,0.083,0.008,0.134,0.018v0.12c0,0.312,0.075,0.55,0.223,0.718c0.148,0.167,0.395,0.251,0.74,0.251
	c0.127,0,0.248-0.015,0.363-0.042c0.116-0.029,0.218-0.071,0.304-0.127c0.087-0.057,0.158-0.128,0.212-0.216
	c0.054-0.087,0.081-0.19,0.081-0.308c0-0.146-0.036-0.27-0.109-0.371c-0.074-0.102-0.17-0.191-0.29-0.269
	c-0.12-0.078-0.258-0.147-0.414-0.208s-0.316-0.125-0.481-0.191c-0.193-0.07-0.386-0.148-0.58-0.232
	c-0.193-0.085-0.366-0.188-0.52-0.309c-0.153-0.12-0.278-0.265-0.375-0.435c-0.097-0.17-0.145-0.375-0.145-0.615
	c0-0.292,0.076-0.539,0.23-0.739c0.153-0.2,0.346-0.363,0.58-0.488c0.233-0.125,0.487-0.214,0.76-0.269
	c0.274-0.054,0.53-0.082,0.771-0.082c0.231,0,0.455,0.014,0.672,0.042s0.431,0.075,0.644,0.142c0.037,0.009,0.056,0.028,0.056,0.057
	c0.01,0.08,0.018,0.19,0.024,0.329c0.008,0.139,0.014,0.282,0.019,0.428c0.005,0.146,0.008,0.284,0.011,0.414
	c0.002,0.13,0.003,0.226,0.003,0.287L143.185,31.767z"/>
<path fill="#0071BC" d="M155.415,34.851c-0.245,0.137-0.514,0.252-0.806,0.346c-0.292,0.095-0.579,0.17-0.859,0.227
	c-0.28,0.057-0.542,0.098-0.785,0.124c-0.243,0.025-0.44,0.038-0.59,0.038c-0.651,0-1.245-0.109-1.782-0.329
	c-0.538-0.219-0.999-0.522-1.383-0.909c-0.385-0.387-0.683-0.846-0.895-1.379c-0.212-0.533-0.318-1.115-0.318-1.747
	c0-0.684,0.12-1.29,0.36-1.817c0.241-0.528,0.573-0.973,0.997-1.334c0.424-0.36,0.926-0.633,1.506-0.82
	c0.58-0.186,1.209-0.279,1.889-0.279c0.381,0,0.747,0.025,1.096,0.074s0.688,0.11,1.019,0.181c0.042,0.009,0.077,0.029,0.103,0.06
	c0.026,0.031,0.041,0.063,0.045,0.096c0.005,0.065,0.011,0.15,0.019,0.254c0.007,0.104,0.013,0.216,0.018,0.335
	c0.004,0.121,0.01,0.244,0.018,0.368c0.006,0.125,0.013,0.24,0.018,0.347c0.005,0.106,0.008,0.197,0.01,0.272
	c0.003,0.076,0.004,0.123,0.004,0.142l-0.354,0.036c-0.029-0.292-0.114-0.54-0.258-0.743c-0.145-0.203-0.322-0.366-0.535-0.492
	c-0.212-0.124-0.446-0.215-0.703-0.272c-0.257-0.056-0.513-0.085-0.767-0.085c-0.515,0-0.961,0.085-1.341,0.254
	c-0.379,0.17-0.696,0.405-0.947,0.704c-0.253,0.3-0.441,0.653-0.565,1.061c-0.125,0.408-0.188,0.852-0.188,1.333
	c0,0.562,0.077,1.083,0.23,1.566c0.153,0.483,0.383,0.902,0.689,1.255c0.306,0.354,0.688,0.632,1.146,0.835s0.993,0.304,1.605,0.304
	c0.368,0,0.724-0.041,1.068-0.121c0.344-0.08,0.692-0.188,1.046-0.325L155.415,34.851z"/>
<path fill="#0071BC" d="M158.509,35.522c-0.391,0-0.746-0.07-1.064-0.209c-0.318-0.139-0.593-0.329-0.824-0.569
	c-0.231-0.24-0.409-0.525-0.534-0.853c-0.125-0.327-0.188-0.68-0.188-1.057c0-0.415,0.072-0.794,0.216-1.138
	c0.144-0.344,0.343-0.638,0.598-0.881c0.254-0.243,0.558-0.431,0.912-0.565c0.354-0.135,0.743-0.202,1.167-0.202
	c0.391,0,0.749,0.067,1.072,0.202c0.323,0.134,0.599,0.319,0.828,0.555c0.228,0.235,0.406,0.514,0.534,0.834s0.19,0.667,0.19,1.039
	c0,0.425-0.07,0.813-0.211,1.165c-0.141,0.351-0.341,0.65-0.598,0.897c-0.257,0.248-0.564,0.439-0.92,0.577
	C159.331,35.454,158.938,35.522,158.509,35.522z M158.842,34.9c0.254,0,0.464-0.056,0.629-0.166
	c0.164-0.111,0.294-0.254,0.389-0.429c0.094-0.174,0.159-0.371,0.194-0.587c0.036-0.217,0.053-0.429,0.053-0.636
	c0-0.254-0.027-0.523-0.081-0.806c-0.054-0.283-0.146-0.544-0.272-0.782c-0.127-0.238-0.295-0.436-0.502-0.591
	c-0.207-0.155-0.464-0.234-0.771-0.234c-0.254,0-0.464,0.056-0.629,0.167c-0.165,0.11-0.294,0.254-0.389,0.431
	c-0.094,0.176-0.16,0.373-0.198,0.586c-0.038,0.215-0.057,0.428-0.057,0.641c0,0.259,0.029,0.53,0.085,0.813
	c0.057,0.283,0.148,0.542,0.276,0.778s0.294,0.431,0.502,0.583C158.278,34.823,158.535,34.9,158.842,34.9z"/>
<path fill="#0071BC" d="M161.986,30.479c0.255-0.071,0.489-0.131,0.704-0.18c0.215-0.049,0.403-0.091,0.566-0.124
	c0.163-0.033,0.296-0.057,0.4-0.071c0.104-0.014,0.172-0.021,0.205-0.021c0.141,0,0.219,0.084,0.233,0.254l0.021,0.304
	c0.212-0.085,0.423-0.164,0.633-0.236c0.209-0.074,0.41-0.136,0.601-0.188c0.19-0.052,0.367-0.093,0.529-0.124
	c0.163-0.031,0.301-0.046,0.415-0.046c0.311,0,0.567,0.058,0.767,0.173s0.354,0.279,0.463,0.491c0.5-0.226,0.952-0.394,1.354-0.502
	c0.403-0.108,0.739-0.163,1.008-0.163c0.269,0,0.5,0.042,0.693,0.127c0.194,0.084,0.352,0.203,0.474,0.354
	c0.123,0.15,0.213,0.333,0.272,0.548s0.089,0.452,0.089,0.711l-0.035,3.401c0,0.113-0.057,0.179-0.17,0.198
	c-0.076,0.015-0.16,0.027-0.251,0.039c-0.092,0.012-0.182,0.021-0.269,0.029c-0.088,0.007-0.167,0.012-0.241,0.014
	c-0.073,0.003-0.126,0.004-0.159,0.004c-0.113,0-0.17-0.06-0.17-0.176l0.035-2.816v-0.106c0-0.254-0.021-0.477-0.06-0.668
	c-0.04-0.191-0.107-0.351-0.202-0.481c-0.094-0.13-0.218-0.228-0.371-0.294c-0.154-0.065-0.343-0.098-0.569-0.098
	c-0.039,0-0.097,0.005-0.177,0.017c-0.08,0.012-0.176,0.031-0.287,0.057c-0.111,0.026-0.234,0.063-0.372,0.109
	c-0.137,0.048-0.278,0.106-0.424,0.177c0.047,0.169,0.071,0.392,0.071,0.665l-0.036,3.331c0,0.113-0.056,0.18-0.169,0.198
	c-0.075,0.014-0.159,0.027-0.251,0.039c-0.092,0.012-0.182,0.021-0.27,0.029c-0.086,0.007-0.166,0.012-0.24,0.014
	c-0.073,0.003-0.125,0.004-0.159,0.004c-0.113,0-0.17-0.059-0.17-0.176l0.035-2.816v-0.106c0-0.504-0.084-0.888-0.255-1.152
	c-0.169-0.264-0.466-0.396-0.891-0.396c-0.08,0-0.233,0.024-0.457,0.071c-0.224,0.047-0.487,0.139-0.788,0.276v4.017
	c0,0.113-0.057,0.179-0.17,0.198c-0.076,0.015-0.159,0.027-0.251,0.039c-0.092,0.012-0.182,0.021-0.269,0.029
	c-0.088,0.007-0.168,0.012-0.241,0.014c-0.073,0.003-0.126,0.004-0.159,0.004c-0.113,0-0.169-0.06-0.169-0.176v-3.854
	c0-0.25-0.041-0.421-0.12-0.513c-0.08-0.092-0.208-0.137-0.382-0.137c-0.048,0-0.095,0-0.145,0.003
	c-0.05,0.003-0.11,0.011-0.181,0.025L161.986,30.479z"/>
<path fill="#0071BC" d="M173.208,31.442c0-0.25-0.04-0.421-0.12-0.513c-0.08-0.092-0.208-0.137-0.381-0.137
	c-0.048,0-0.096,0-0.146,0.003c-0.049,0.003-0.109,0.011-0.18,0.025l-0.042-0.34c0.255-0.07,0.489-0.131,0.704-0.18
	c0.215-0.05,0.403-0.091,0.566-0.124c0.163-0.033,0.295-0.057,0.399-0.071c0.104-0.014,0.172-0.021,0.205-0.021
	c0.142,0,0.219,0.084,0.233,0.254l0.021,0.303c0.231-0.08,0.46-0.156,0.689-0.23c0.229-0.073,0.445-0.136,0.651-0.19
	c0.205-0.055,0.394-0.097,0.565-0.127c0.172-0.031,0.318-0.046,0.436-0.046c0.288,0,0.544,0.077,0.77,0.23
	c0.227,0.153,0.418,0.35,0.577,0.59c0.158,0.241,0.279,0.508,0.364,0.803c0.085,0.295,0.127,0.581,0.127,0.859
	c0,0.495-0.091,0.929-0.272,1.302c-0.182,0.373-0.423,0.686-0.725,0.937c-0.302,0.252-0.648,0.441-1.04,0.565
	c-0.392,0.125-0.799,0.188-1.223,0.188c-0.151,0-0.302-0.008-0.453-0.024c-0.151-0.016-0.307-0.041-0.467-0.074v2.949
	c0,0.113-0.056,0.179-0.169,0.199c-0.076,0.013-0.159,0.027-0.251,0.039c-0.091,0.011-0.182,0.021-0.268,0.028
	c-0.088,0.007-0.167,0.012-0.241,0.014c-0.074,0.002-0.126,0.003-0.16,0.003c-0.113,0-0.169-0.059-0.169-0.176V31.442
	L173.208,31.442L173.208,31.442z M174.467,34.129c0,0.127,0.032,0.241,0.095,0.339c0.064,0.1,0.15,0.182,0.258,0.248
	c0.108,0.066,0.237,0.117,0.386,0.152c0.148,0.035,0.305,0.053,0.47,0.053c1.146,0,1.718-0.589,1.718-1.768
	c0-0.269-0.032-0.542-0.095-0.82c-0.064-0.278-0.158-0.531-0.283-0.757c-0.125-0.226-0.282-0.41-0.47-0.552
	c-0.189-0.142-0.408-0.212-0.658-0.212c-0.095,0-0.269,0.026-0.523,0.078c-0.254,0.052-0.554,0.146-0.898,0.283V34.129
	L174.467,34.129z"/>
<path fill="#0071BC" d="M179.712,30.635c0.246-0.099,0.487-0.186,0.725-0.261c0.239-0.075,0.462-0.137,0.672-0.188
	c0.209-0.049,0.401-0.087,0.572-0.113c0.172-0.025,0.315-0.039,0.429-0.039c0.339,0,0.625,0.039,0.855,0.117
	c0.231,0.078,0.417,0.202,0.559,0.372c0.141,0.17,0.243,0.386,0.304,0.647c0.061,0.261,0.09,0.576,0.085,0.943l-0.035,2.306
	c-0.005,0.146,0.004,0.283,0.028,0.41c0.024,0.128,0.049,0.253,0.078,0.375c0.005,0.005,0.007,0.023,0.007,0.056
	c0,0.071-0.047,0.113-0.142,0.127c-0.062,0.015-0.131,0.027-0.208,0.039s-0.156,0.021-0.236,0.029
	c-0.08,0.007-0.161,0.012-0.24,0.014c-0.08,0.003-0.151,0.004-0.212,0.004c-0.052,0-0.092-0.014-0.117-0.043
	c-0.026-0.028-0.046-0.07-0.06-0.127l-0.092-0.34c-0.179,0.08-0.363,0.155-0.552,0.223c-0.189,0.068-0.369,0.127-0.541,0.176
	c-0.172,0.05-0.329,0.089-0.47,0.117c-0.142,0.028-0.257,0.042-0.347,0.042c-0.25,0-0.467-0.046-0.651-0.138
	s-0.335-0.208-0.452-0.346c-0.119-0.139-0.206-0.292-0.262-0.459c-0.057-0.168-0.085-0.327-0.085-0.478
	c0-0.268,0.048-0.496,0.146-0.682c0.097-0.186,0.228-0.34,0.393-0.463c0.146-0.108,0.317-0.198,0.512-0.269
	c0.196-0.071,0.412-0.126,0.647-0.166c0.235-0.04,0.49-0.07,0.764-0.088c0.273-0.019,0.561-0.033,0.863-0.042l0.007-0.241
	c0.005-0.217-0.008-0.412-0.04-0.583c-0.031-0.173-0.086-0.318-0.166-0.436c-0.08-0.118-0.189-0.207-0.326-0.269
	c-0.137-0.061-0.309-0.092-0.516-0.092c-0.254,0-0.52,0.028-0.795,0.085c-0.276,0.056-0.59,0.141-0.944,0.254L179.712,30.635z
	 M182.64,32.87c-0.222,0.014-0.43,0.027-0.623,0.039c-0.193,0.012-0.37,0.03-0.53,0.053c-0.161,0.024-0.302,0.06-0.424,0.11
	s-0.222,0.12-0.297,0.208c-0.056,0.066-0.104,0.148-0.142,0.248c-0.038,0.099-0.056,0.208-0.056,0.326
	c0,0.099,0.015,0.2,0.046,0.304c0.031,0.104,0.085,0.199,0.163,0.287c0.077,0.087,0.183,0.159,0.315,0.216
	c0.131,0.057,0.299,0.085,0.502,0.085c0.028,0,0.074-0.005,0.137-0.014c0.064-0.01,0.142-0.025,0.233-0.047
	c0.092-0.021,0.194-0.05,0.308-0.088c0.113-0.037,0.229-0.084,0.347-0.142L182.64,32.87z"/>
<path fill="#0071BC" d="M184.801,30.479c0.255-0.071,0.49-0.131,0.704-0.18s0.403-0.091,0.566-0.124
	c0.162-0.033,0.295-0.057,0.399-0.071s0.172-0.021,0.206-0.021c0.141,0,0.218,0.084,0.233,0.254l0.021,0.297
	c0.217-0.08,0.435-0.155,0.654-0.226c0.219-0.071,0.428-0.134,0.626-0.188c0.198-0.054,0.379-0.097,0.544-0.127
	c0.165-0.031,0.304-0.046,0.417-0.046c0.269,0,0.499,0.042,0.689,0.127c0.191,0.084,0.348,0.203,0.47,0.354
	c0.123,0.15,0.212,0.333,0.27,0.548c0.056,0.214,0.084,0.452,0.084,0.711l-0.035,3.401c0,0.113-0.057,0.179-0.17,0.198
	c-0.076,0.014-0.159,0.027-0.251,0.039c-0.092,0.012-0.181,0.021-0.269,0.029c-0.087,0.007-0.167,0.012-0.241,0.014
	c-0.072,0.003-0.126,0.004-0.159,0.004c-0.113,0-0.169-0.06-0.169-0.176l0.035-2.816v-0.106c0-0.254-0.02-0.477-0.06-0.668
	c-0.04-0.191-0.107-0.353-0.201-0.484c-0.095-0.132-0.217-0.231-0.367-0.297c-0.151-0.065-0.34-0.099-0.566-0.099
	c-0.085,0-0.244,0.024-0.478,0.071c-0.234,0.047-0.508,0.139-0.824,0.276v4.017c0,0.113-0.057,0.179-0.169,0.198
	c-0.076,0.015-0.16,0.027-0.251,0.039c-0.093,0.012-0.182,0.021-0.27,0.029c-0.087,0.007-0.167,0.012-0.24,0.014
	c-0.073,0.003-0.126,0.004-0.159,0.004c-0.113,0-0.17-0.06-0.17-0.176v-3.854c0-0.25-0.04-0.421-0.12-0.513
	s-0.208-0.137-0.382-0.137c-0.047,0-0.096,0-0.145,0.003c-0.049,0.003-0.11,0.011-0.181,0.025L184.801,30.479z"/>
<path fill="#0071BC" d="M195.804,30.423c0.023-0.061,0.052-0.106,0.085-0.138c0.033-0.031,0.082-0.055,0.148-0.074
	c0.071-0.019,0.144-0.036,0.219-0.05c0.076-0.014,0.148-0.025,0.22-0.035c0.07-0.009,0.135-0.018,0.194-0.024
	c0.059-0.007,0.105-0.011,0.138-0.011c0.085,0,0.127,0.028,0.127,0.085c0,0.033-0.012,0.073-0.036,0.12
	c-0.169,0.335-0.345,0.688-0.526,1.058s-0.364,0.745-0.548,1.124c-0.184,0.38-0.364,0.758-0.542,1.136
	c-0.177,0.376-0.346,0.74-0.506,1.089c-0.159,0.349-0.307,0.678-0.441,0.986c-0.134,0.309-0.251,0.584-0.35,0.824
	c-0.085,0.212-0.184,0.445-0.297,0.7s-0.251,0.492-0.414,0.711c-0.163,0.219-0.355,0.402-0.576,0.547
	c-0.222,0.146-0.484,0.219-0.786,0.219c-0.122,0-0.233-0.019-0.332-0.057c-0.099-0.038-0.184-0.089-0.254-0.156
	c-0.071-0.066-0.125-0.141-0.163-0.226c-0.037-0.085-0.057-0.177-0.057-0.276c0-0.075,0.013-0.154,0.039-0.237
	c0.026-0.082,0.069-0.156,0.131-0.223c0.108,0.062,0.212,0.104,0.311,0.131c0.099,0.025,0.203,0.038,0.312,0.038
	c0.132,0,0.262-0.021,0.389-0.064c0.127-0.042,0.252-0.117,0.375-0.222c0.122-0.106,0.247-0.249,0.372-0.428
	c0.125-0.18,0.251-0.408,0.378-0.686l0.41-0.905l-1.76-4.032c-0.094-0.221-0.193-0.37-0.297-0.445s-0.229-0.113-0.375-0.113
	c-0.047,0-0.097,0.002-0.148,0.006c-0.052,0.005-0.106,0.012-0.163,0.022l-0.042-0.339c0.194-0.057,0.389-0.108,0.587-0.155
	c0.199-0.047,0.382-0.088,0.552-0.124c0.169-0.035,0.313-0.063,0.431-0.082c0.118-0.019,0.192-0.028,0.226-0.028
	c0.071,0,0.123,0.022,0.156,0.066c0.033,0.045,0.066,0.108,0.1,0.188l1.365,3.522h0.028L195.804,30.423z"/>
<path fill="#CFCFCF" d="M62.957,19.328h-8.931l-1.464,3.221h-3.49l7.662-17.081h3.514l7.662,17.081h-3.514L62.957,19.328z
	 M58.491,9.055l-3.172,7.271h6.344L58.491,9.055z"/>
<path fill="#CFCFCF" d="M80.088,10.495l-5.125,12.104h-3.221l-5.149-12.104h3.246l1.659,3.978l1.854,5.075l1.831-5.027l1.659-4.026
	L80.088,10.495L80.088,10.495L80.088,10.495z"/>
<path fill="#CFCFCF" d="M84.773,7.127c0,2.318-3.514,2.318-3.514,0S84.773,4.81,84.773,7.127z M81.528,10.47v12.079h2.977V10.47
	H81.528L81.528,10.47z"/>
<path fill="#CFCFCF" d="M96.731,10.519h2.854v12.03H96.78l-0.147-1.757c-0.683,1.416-2.562,2.099-3.903,2.123
	c-3.563,0.025-6.199-2.171-6.199-6.393c0-4.148,2.758-6.32,6.271-6.295c1.61,0,3.147,0.756,3.831,1.952L96.731,10.519z
	 M89.508,16.522c0,2.293,1.586,3.66,3.563,3.66c4.685,0,4.685-7.296,0-7.296C91.094,12.886,89.508,14.228,89.508,16.522z"/>
<path fill="#CFCFCF" d="M105.784,7.127v3.417h3.319v2.563h-3.343v5.197c0,1.146,0.634,1.708,1.562,1.708
	c0.463,0,1-0.146,1.438-0.366l0.83,2.538c-0.854,0.341-1.562,0.488-2.465,0.512c-2.61,0.098-4.319-1.39-4.319-4.392v-5.197h-2.245
	v-2.562h2.245V7.445L105.784,7.127z"/>
<path fill="#CFCFCF" d="M114.081,10.519l0.22,1.392c0.928-1.489,2.171-1.708,3.392-1.708c1.245,0,2.44,0.488,3.1,1.147l-1.342,2.586
	c-0.61-0.512-1.172-0.781-2.147-0.781c-1.562,0-3.001,0.83-3.001,3.05v6.344h-2.977v-12.03H114.081L114.081,10.519z"/>
<path fill="#CFCFCF" d="M131.456,10.519h2.854v12.03h-2.806l-0.146-1.757c-0.683,1.416-2.563,2.099-3.904,2.123
	c-3.563,0.025-6.197-2.171-6.197-6.393c0-4.148,2.757-6.32,6.271-6.295c1.611,0,3.148,0.756,3.831,1.952L131.456,10.519z
	 M124.232,16.522c0,2.293,1.586,3.66,3.563,3.66c4.685,0,4.685-7.296,0-7.296C125.818,12.886,124.232,14.228,124.232,16.522z"/>
<path fill="#CFCFCF" d="M149.318,5.493v17.057h-2.782l-0.195-1.66c-0.927,1.44-2.416,1.928-3.879,1.928
	c-3.538,0-6.198-2.342-6.198-6.295c0-4.148,2.61-6.296,6.125-6.296c1.269,0,3.245,0.684,3.953,1.928V5.493H149.318z M139.241,16.522
	c0,2.099,1.513,3.538,3.416,3.538c1.879,0,3.489-1.366,3.489-3.538c0-2.099-1.61-3.514-3.489-3.514
	C140.753,13.008,139.241,14.35,139.241,16.522z"/>
<path fill="#CFCFCF" d="M154.711,17.596c0.195,1.488,1.488,2.562,3.587,2.562c1.098,0,2.538-0.415,3.221-1.122l1.903,1.878
	c-1.269,1.318-3.343,1.952-5.173,1.952c-4.148,0-6.612-2.562-6.612-6.417c0-3.66,2.489-6.295,6.393-6.295
	c4.026,0,6.539,2.489,6.076,7.442L154.711,17.596L154.711,17.596z M161.251,15.131c-0.195-1.562-1.415-2.343-3.124-2.343
	c-1.61,0-2.928,0.781-3.367,2.343H161.251z"/>
<path fill="#CFCFCF" d="M169.841,21.013c0,2.317-3.514,2.317-3.514,0C166.327,18.694,169.841,18.694,169.841,21.013z"/>
<path fill="#CFCFCF" d="M175.356,10.519v6.296c0,1.83,1,3.221,2.904,3.221c1.831,0,3.074-1.538,3.074-3.367v-6.15h2.953v12.054
	h-2.659l-0.195-1.634c-1.245,1.221-2.392,1.806-4.076,1.806c-2.879,0-4.978-2.171-4.978-5.905v-6.321H175.356L175.356,10.519z"/>
<path fill="#CFCFCF" d="M194.78,13.716c-0.854-0.806-1.83-1.074-2.977-1.074c-1.415,0-2.196,0.439-2.196,1.195
	c0,0.781,0.708,1.22,2.245,1.318c2.269,0.146,5.148,0.659,5.148,3.855c0,2.123-1.731,3.952-5.173,3.952
	c-1.903,0-3.806-0.317-5.563-2.147l1.464-2.123c0.854,0.952,2.806,1.66,4.148,1.684c1.123,0.024,2.171-0.561,2.171-1.439
	c0-0.83-0.684-1.172-2.391-1.27c-2.27-0.17-4.979-1-4.979-3.733c0-2.781,2.88-3.758,5.076-3.758c1.879,0,3.294,0.366,4.685,1.587
	L194.78,13.716z"/>
<path fill="#0071BC" d="M19.677,33.635c0.024-0.278,0.047-0.557,0.067-0.834l0.27-0.169l5.235-0.403l0.007-1.68h0.001h-0.001
	l0.002-0.198l-5.018-0.862c0.361-3.205,0.971-8.445,1-10.298l0.8-0.062l7.987-0.501v0.004l3.498-0.212v-0.012l0.198-0.014
	c0,0,0.099-1.74,0.09-2.04c-0.009-0.298-0.035-0.946-0.27-0.983l-12.351-1.086c-0.048-2.903-0.313-5.956-0.566-7.017
	c-0.111-0.471-0.191-0.448-0.408-0.448c-0.071,0-0.11-0.008-0.133-0.03V6.787l0,0c-0.015-0.014-0.023-0.036-0.023-0.067
	c0-0.599-0.265-1.332-0.385-1.332c-0.121,0-0.385,0.732-0.385,1.332c0,0.032-0.009,0.053-0.022,0.067c-0.001,0-0.001,0-0.002,0
	l0.001,0.003c-0.022,0.022-0.062,0.03-0.133,0.03c-0.217,0-0.297-0.022-0.409,0.448c-0.252,1.061-0.516,4.113-0.564,7.017
	L5.811,15.371c-0.234,0.037-0.262,0.685-0.271,0.983c-0.009,0.299,0.091,2.04,0.091,2.04l0.199,0.014v0.012l3.497,0.212v-0.004
	l7.988,0.501l0.798-0.15c0.012,0.715,0.11,1.968,0.247,3.419l0.006,0.098l0.002-0.001c0.216,2.292,0.526,5.054,0.744,6.995
	l-5.017,0.862l0.001,0.198l-0.001,0l0.001,0l0.008,1.68l5.234,0.403l0.269,0.169C19.629,33.078,19.652,33.357,19.677,33.635z"/>
<path fill="#999999" d="M30.17,3.053c2.93,1.645,5.271,3.884,6.924,6.858c2.835,5.1,2.885,10.422,0.8,15.668
	c-2.275,5.722-6.597,9.283-12.729,10.477c-7.724,1.505-16.072-1.871-20.275-8.447c-6.3-9.856-2.165-22.806,9.018-26.625
	c4.38-1.495,8.609-1.288,12.8,0.642c-0.615-0.132-1.225-0.285-1.844-0.391C16.705-0.173,8.708,4.113,5.321,11.706
	C2.286,18.51,4.695,28.08,10.619,32.533c4.008,3.013,8.603,3.222,13.229,2.21c7.086-1.548,12.332-7.16,13.328-13.962
	c1.028-7.024-1.271-12.768-6.844-17.181c-0.129-0.103-0.303-0.15-0.455-0.225C29.975,3.268,30.072,3.161,30.17,3.053z"/>
<path fill="#0071BC" d="M3.836,7.052c-2.835,5.427-3.475,11.029-1.409,16.845c1.524,4.295,4.184,7.681,8.012,10.176
	c6.983,4.553,19.467,4.976,27.322-5.437c-0.284,3.09-7.532,8.886-12.314,10.063c-9.406,2.314-18.711-2.186-22.935-9.565
	C-1.649,21.862-0.246,12.338,3.836,7.052z"/>
<path fill="#29ABE2" d="M7.948,9.035c3.657-5.345,8.819-7.72,15.179-7.066c5.796,0.596,9.934,3.813,12.277,9.161
	c2.312,5.279,1.623,10.332-1.459,15.125c1.845-3.857,2.13-7.862,0.934-11.925c-1.208-4.097-3.789-7.152-7.585-9.124
	C22.245,2.587,14.01,2.357,7.948,9.035z"/>
</svg>
